<svg id="Asterisque" width="100%" height="100%" viewBox="0 0 92 100" version="1.1" xmlns="http://www.w3.org/2000/svg" xmlns:xlink="http://www.w3.org/1999/xlink" xml:space="preserve" xmlns:serif="http://www.serif.com/" style="fill-rule:evenodd;clip-rule:evenodd;stroke-linejoin:round;stroke-miterlimit:2;"><path d="M91.095,30.872c-0,-6.531 -5.937,-11.577 -11.577,-11.577c-10.39,-0 -21.076,14.545 -24.935,14.545c-0.297,0 -0.593,-0.296 -0.593,-0.593c0,-2.078 3.561,-11.28 3.561,-19.592c0,-7.718 -3.265,-13.655 -11.56,-13.655c-5.926,0 -11.854,2.968 -11.854,13.358c0,7.124 2.668,15.139 2.668,18.701c-0,1.781 -0.593,2.078 -1.482,2.078c-7.123,0 -13.356,-15.733 -23.152,-15.733c-5.047,0 -11.28,4.156 -11.28,10.39c-0,15.721 26.122,13.052 26.122,18.983c-0,5.337 -27.013,8.005 -27.013,21.351c0,2.078 2.078,10.39 9.499,10.39c10.983,-0 20.186,-13.062 24.935,-13.062c1.484,0 1.781,1.485 1.781,3.266c-0.003,4.156 -2.078,11.577 -2.078,17.81c0,9.796 7.113,12.468 10.67,12.468c2.963,-0 12.447,-2.375 12.447,-11.577c0,-4.156 -2.671,-13.061 -2.671,-20.482c-0,-1.781 0.296,-2.671 2.077,-2.671c3.266,0 12.171,15.732 22.561,15.732c5.64,-0 11.28,-4.75 11.28,-11.577c-0,-16.904 -27.013,-13.939 -27.013,-19.276c-0,-4.448 27.607,-6.82 27.607,-19.277Z" style="fill-rule:nonzero;"/></svg>