<svg width="100%" height="100%" viewBox="0 0 102 100" version="1.1" xmlns="http://www.w3.org/2000/svg" xmlns:xlink="http://www.w3.org/1999/xlink" xml:space="preserve" xmlns:serif="http://www.serif.com/" style="fill-rule:evenodd;clip-rule:evenodd;stroke-linejoin:round;stroke-miterlimit:2;"><path id="ciseau-1" d="M40.965,50l10.036,10l-11.793,11.75c0.669,1.25 1.129,2.583 1.38,4c0.251,1.417 0.376,2.833 0.376,4.25c0,5.5 -1.965,10.208 -5.896,14.125c-3.931,3.917 -8.657,5.875 -14.177,5.875c-5.52,0 -10.245,-1.958 -14.176,-5.875c-3.932,-3.917 -5.897,-8.625 -5.897,-14.125c0,-5.5 1.965,-10.208 5.897,-14.125c3.931,-3.917 8.656,-5.875 14.176,-5.875c1.422,0 2.844,0.125 4.266,0.375c1.422,0.25 2.76,0.708 4.014,1.375l11.793,-11.75Zm25.092,-5l-10.037,-10l30.11,-30l15.055,0l-0,5l-35.128,35Zm-45.165,45c2.76,0 5.123,-0.979 7.089,-2.938c1.965,-1.958 2.948,-4.312 2.948,-7.062c-0,-2.75 -0.983,-5.104 -2.948,-7.063c-1.966,-1.958 -4.329,-2.937 -7.089,-2.937c-2.76,0 -5.122,0.979 -7.088,2.938c-1.966,1.958 -2.948,4.312 -2.948,7.062c-0,2.75 0.982,5.104 2.948,7.063c1.966,1.958 4.328,2.937 7.088,2.937Z" style="fill-rule:nonzero;"/><path id="ciseau-2" d="M86.129,95l-45.165,-45l-11.793,-11.75c-1.254,0.667 -2.592,1.125 -4.014,1.375c-1.422,0.25 -2.844,0.375 -4.266,0.375c-5.52,0 -10.245,-1.958 -14.176,-5.875c-3.932,-3.917 -5.897,-8.625 -5.897,-14.125c0,-5.5 1.965,-10.208 5.897,-14.125c3.931,-3.917 8.656,-5.875 14.176,-5.875c5.52,0 10.246,1.958 14.177,5.875c3.931,3.917 5.896,8.625 5.896,14.125c0,1.417 -0.125,2.833 -0.376,4.25c-0.251,1.417 -0.711,2.75 -1.38,4l61.976,61.75l0,5l-15.055,0Zm-65.238,-65c2.76,0 5.123,-0.979 7.089,-2.938c1.965,-1.958 2.948,-4.312 2.948,-7.062c-0,-2.75 -0.983,-5.104 -2.948,-7.063c-1.966,-1.958 -4.329,-2.937 -7.089,-2.937c-2.76,0 -5.122,0.979 -7.088,2.937c-1.966,1.959 -2.948,4.313 -2.948,7.063c-0,2.75 0.982,5.104 2.948,7.062c1.966,1.959 4.328,2.938 7.088,2.938Zm30.11,22.5c0.67,0 1.255,-0.25 1.757,-0.75c0.501,-0.5 0.752,-1.083 0.752,-1.75c0,-0.667 -0.251,-1.25 -0.752,-1.75c-0.502,-0.5 -1.087,-0.75 -1.757,-0.75c-0.669,0 -1.254,0.25 -1.756,0.75c-0.502,0.5 -0.753,1.083 -0.753,1.75c-0,0.667 0.251,1.25 0.753,1.75c0.502,0.5 1.087,0.75 1.756,0.75Z" style="fill-rule:nonzero;"/></svg>