<svg width="100%" height="100%" viewBox="0 0 900 307" version="1.1" xmlns="http://www.w3.org/2000/svg" xmlns:xlink="http://www.w3.org/1999/xlink" xml:space="preserve" xmlns:serif="http://www.serif.com/" style="fill-rule:evenodd;clip-rule:evenodd;stroke-linecap:round;stroke-linejoin:round;stroke-miterlimit:1.5;"><path id="Artboard1" d="M900,15.338c0,-8.465 -6.873,-15.338 -15.337,-15.338l-869.326,0c-8.464,0 -15.337,6.873 -15.337,15.338l0,276.074c0,8.465 6.873,15.338 15.337,15.338l869.326,-0c8.464,-0 15.337,-6.873 15.337,-15.338l0,-276.074Z" style="fill:none;"/><clipPath id="_clip1"><path id="Artboard11" serif:id="Artboard1" d="M900,15.338c0,-8.465 -6.873,-15.338 -15.337,-15.338l-869.326,0c-8.464,0 -15.337,6.873 -15.337,15.338l0,276.074c0,8.465 6.873,15.338 15.337,15.338l869.326,-0c8.464,-0 15.337,-6.873 15.337,-15.338l0,-276.074Z"/></clipPath><g clip-path="url(#_clip1)"><path d="M59.817,20.143c0,-7.356 -5.972,-13.328 -13.327,-13.328l-26.655,0c-7.355,0 -13.327,5.972 -13.327,13.328l-0,27.192c-0,7.355 5.972,13.327 13.327,13.327l26.655,-0c7.355,-0 13.327,-5.972 13.327,-13.327l0,-27.192Z" style="fill:none;stroke:#000;stroke-width:2px;"/><path d="M119.93,20.143c-0,-7.356 -5.972,-13.328 -13.328,-13.328l-26.654,0c-7.356,0 -13.328,5.972 -13.328,13.328l0,27.192c0,7.355 5.972,13.327 13.328,13.327l26.654,-0c7.356,-0 13.328,-5.972 13.328,-13.327l-0,-27.192Z" style="fill:none;stroke:#000;stroke-width:2px;"/><path d="M180.042,20.143c0,-7.356 -5.972,-13.328 -13.327,-13.328l-26.655,0c-7.355,0 -13.327,5.972 -13.327,13.328l-0,27.192c-0,7.355 5.972,13.327 13.327,13.327l26.655,-0c7.355,-0 13.327,-5.972 13.327,-13.327l0,-27.192Z" style="fill:none;stroke:#000;stroke-width:2px;"/><path d="M240.155,20.143c-0,-7.356 -5.972,-13.328 -13.328,-13.328l-26.654,0c-7.356,0 -13.328,5.972 -13.328,13.328l0,27.192c0,7.355 5.972,13.327 13.328,13.327l26.654,-0c7.356,-0 13.328,-5.972 13.328,-13.327l-0,-27.192Z" style="fill:none;stroke:#000;stroke-width:2px;"/><path d="M300.267,20.143c0,-7.356 -5.972,-13.328 -13.327,-13.328l-26.655,0c-7.355,0 -13.327,5.972 -13.327,13.328l-0,27.192c-0,7.355 5.972,13.327 13.327,13.327l26.655,-0c7.355,-0 13.327,-5.972 13.327,-13.327l0,-27.192Z" style="fill:none;stroke:#000;stroke-width:2px;"/><path d="M360.38,20.143c-0,-7.356 -5.972,-13.328 -13.328,-13.328l-26.654,0c-7.356,0 -13.328,5.972 -13.328,13.328l0,27.192c0,7.355 5.972,13.327 13.328,13.327l26.654,-0c7.356,-0 13.328,-5.972 13.328,-13.327l-0,-27.192Z" style="fill:none;stroke:#000;stroke-width:2px;"/><path d="M420.492,20.143c0,-7.356 -5.972,-13.328 -13.327,-13.328l-26.655,0c-7.355,0 -13.327,5.972 -13.327,13.328l-0,27.192c-0,7.355 5.972,13.327 13.327,13.327l26.655,-0c7.355,-0 13.327,-5.972 13.327,-13.327l0,-27.192Z" style="fill:none;stroke:#000;stroke-width:2px;"/><path d="M480.605,20.143c-0,-7.356 -5.972,-13.328 -13.328,-13.328l-26.654,0c-7.356,0 -13.328,5.972 -13.328,13.328l0,27.192c0,7.355 5.972,13.327 13.328,13.327l26.654,-0c7.356,-0 13.328,-5.972 13.328,-13.327l-0,-27.192Z" style="fill:none;stroke:#000;stroke-width:2px;"/><path d="M540.717,20.143c0,-7.356 -5.972,-13.328 -13.327,-13.328l-26.655,0c-7.355,0 -13.327,5.972 -13.327,13.328l-0,27.192c-0,7.355 5.972,13.327 13.327,13.327l26.655,-0c7.355,-0 13.327,-5.972 13.327,-13.327l0,-27.192Z" style="fill:none;stroke:#000;stroke-width:2px;"/><path d="M600.83,20.143c-0,-7.356 -5.972,-13.328 -13.328,-13.328l-26.654,0c-7.356,0 -13.328,5.972 -13.328,13.328l0,27.192c0,7.355 5.972,13.327 13.328,13.327l26.654,-0c7.356,-0 13.328,-5.972 13.328,-13.327l-0,-27.192Z" style="fill:none;stroke:#000;stroke-width:2px;"/><path d="M660.942,20.143c0,-7.356 -5.972,-13.328 -13.327,-13.328l-26.655,0c-7.355,0 -13.327,5.972 -13.327,13.328l-0,27.192c-0,7.355 5.972,13.327 13.327,13.327l26.655,-0c7.355,-0 13.327,-5.972 13.327,-13.327l0,-27.192Z" style="fill:none;stroke:#000;stroke-width:2px;"/><path d="M721.055,20.143c-0,-7.356 -5.972,-13.328 -13.328,-13.328l-26.654,0c-7.356,0 -13.328,5.972 -13.328,13.328l0,27.192c0,7.355 5.972,13.327 13.328,13.327l26.654,-0c7.356,-0 13.328,-5.972 13.328,-13.327l-0,-27.192Z" style="fill:none;stroke:#000;stroke-width:2px;"/><path d="M781.167,20.143c0,-7.356 -5.972,-13.328 -13.327,-13.328l-26.655,0c-7.355,0 -13.327,5.972 -13.327,13.328l-0,27.192c-0,7.355 5.972,13.327 13.327,13.327l26.655,-0c7.355,-0 13.327,-5.972 13.327,-13.327l0,-27.192Z" style="fill:none;stroke:#000;stroke-width:2px;"/><path d="M893.556,20.277c0,-7.43 -6.032,-13.462 -13.461,-13.462l-78.663,0c-7.43,0 -13.462,6.032 -13.462,13.462l0,26.923c0,7.43 6.032,13.462 13.462,13.462l78.663,-0c7.429,-0 13.461,-6.032 13.461,-13.462l0,-26.923Z" style="fill:none;stroke:#000;stroke-width:2px;"/><path d="M149.32,80.161c-0,-7.356 -5.972,-13.328 -13.328,-13.328l-26.654,0c-7.356,0 -13.328,5.972 -13.328,13.328l0,27.191c0,7.356 5.972,13.328 13.328,13.328l26.654,-0c7.356,-0 13.328,-5.972 13.328,-13.328l-0,-27.191Z" style="fill:none;stroke:#000;stroke-width:2px;"/><path d="M209.248,80.161c-0,-7.356 -5.972,-13.328 -13.327,-13.328l-26.655,0c-7.356,0 -13.327,5.972 -13.327,13.328l-0,27.191c-0,7.356 5.971,13.328 13.327,13.328l26.655,-0c7.355,-0 13.327,-5.972 13.327,-13.328l-0,-27.191Z" style="fill:none;stroke:#000;stroke-width:2px;"/><path d="M269.176,80.161c0,-7.356 -5.972,-13.328 -13.327,-13.328l-26.655,0c-7.356,0 -13.327,5.972 -13.327,13.328l-0,27.191c-0,7.356 5.971,13.328 13.327,13.328l26.655,-0c7.355,-0 13.327,-5.972 13.327,-13.328l0,-27.191Z" style="fill:none;stroke:#000;stroke-width:2px;"/><path d="M329.104,80.161c0,-7.356 -5.972,-13.328 -13.327,-13.328l-26.655,0c-7.355,0 -13.327,5.972 -13.327,13.328l-0,27.191c-0,7.356 5.972,13.328 13.327,13.328l26.655,-0c7.355,-0 13.327,-5.972 13.327,-13.328l0,-27.191Z" style="fill:none;stroke:#000;stroke-width:2px;"/><path d="M389.032,80.161c0,-7.356 -5.971,-13.328 -13.327,-13.328l-26.655,0c-7.355,0 -13.327,5.972 -13.327,13.328l0,27.191c0,7.356 5.972,13.328 13.327,13.328l26.655,-0c7.356,-0 13.327,-5.972 13.327,-13.328l0,-27.191Z" style="fill:none;stroke:#000;stroke-width:2px;"/><path d="M448.961,80.161c-0,-7.356 -5.972,-13.328 -13.328,-13.328l-26.654,0c-7.356,0 -13.328,5.972 -13.328,13.328l0,27.191c0,7.356 5.972,13.328 13.328,13.328l26.654,-0c7.356,-0 13.328,-5.972 13.328,-13.328l-0,-27.191Z" style="fill:none;stroke:#000;stroke-width:2px;"/><path d="M508.889,80.161c-0,-7.356 -5.972,-13.328 -13.327,-13.328l-26.655,0c-7.356,0 -13.327,5.972 -13.327,13.328l-0,27.191c-0,7.356 5.971,13.328 13.327,13.328l26.655,-0c7.355,-0 13.327,-5.972 13.327,-13.328l-0,-27.191Z" style="fill:none;stroke:#000;stroke-width:2px;"/><path d="M568.817,80.161c0,-7.356 -5.972,-13.328 -13.327,-13.328l-26.655,0c-7.356,0 -13.327,5.972 -13.327,13.328l-0,27.191c-0,7.356 5.971,13.328 13.327,13.328l26.655,-0c7.355,-0 13.327,-5.972 13.327,-13.328l0,-27.191Z" style="fill:none;stroke:#000;stroke-width:2px;"/><path d="M628.745,80.161c0,-7.356 -5.972,-13.328 -13.327,-13.328l-26.655,0c-7.355,0 -13.327,5.972 -13.327,13.328l-0,27.191c-0,7.356 5.972,13.328 13.327,13.328l26.655,-0c7.355,-0 13.327,-5.972 13.327,-13.328l0,-27.191Z" style="fill:none;stroke:#000;stroke-width:2px;"/><path d="M688.673,80.161c0,-7.356 -5.971,-13.328 -13.327,-13.328l-26.655,0c-7.355,0 -13.327,5.972 -13.327,13.328l0,27.191c0,7.356 5.972,13.328 13.327,13.328l26.655,-0c7.356,-0 13.327,-5.972 13.327,-13.328l0,-27.191Z" style="fill:none;stroke:#000;stroke-width:2px;"/><path d="M748.602,80.161c-0,-7.356 -5.972,-13.328 -13.328,-13.328l-26.654,0c-7.356,0 -13.328,5.972 -13.328,13.328l0,27.191c0,7.356 5.972,13.328 13.328,13.328l26.654,-0c7.356,-0 13.328,-5.972 13.328,-13.328l-0,-27.191Z" style="fill:none;stroke:#000;stroke-width:2px;"/><path d="M808.53,80.161c-0,-7.356 -5.972,-13.328 -13.327,-13.328l-26.655,0c-7.356,0 -13.327,5.972 -13.327,13.328l-0,27.191c-0,7.356 5.971,13.328 13.327,13.328l26.655,-0c7.355,-0 13.327,-5.972 13.327,-13.328l-0,-27.191Z" style="fill:none;stroke:#000;stroke-width:2px;"/><path d="M833.175,120.68l0,43.884c0,8.416 6.833,15.25 15.25,15.25l30.501,-0c8.416,-0 15.25,-6.834 15.25,-15.25l-0,-84.269c-0,-7.43 -6.032,-13.462 -13.462,-13.462l-52.104,0c-7.429,0 -13.461,6.032 -13.461,13.462l-0,26.923c-0,7.43 6.032,13.462 13.461,13.462l4.565,-0Z" style="fill:none;stroke:#000;stroke-width:2px;"/><path d="M89.391,80.295c0,-7.43 -6.031,-13.462 -13.461,-13.462l-56.13,0c-7.43,0 -13.461,6.032 -13.461,13.462l-0,26.923c-0,7.43 6.031,13.462 13.461,13.462l56.13,-0c7.43,-0 13.461,-6.032 13.461,-13.462l0,-26.923Z" style="fill:none;stroke:#000;stroke-width:2px;"/><path d="M166.192,139.295c-0,-7.356 -5.972,-13.328 -13.328,-13.328l-26.654,0c-7.356,0 -13.328,5.972 -13.328,13.328l0,27.191c0,7.356 5.972,13.328 13.328,13.328l26.654,-0c7.356,-0 13.328,-5.972 13.328,-13.328l-0,-27.191Z" style="fill:none;stroke:#000;stroke-width:2px;"/><path d="M226.184,139.295c-0,-7.356 -5.972,-13.328 -13.328,-13.328l-26.654,0c-7.356,0 -13.328,5.972 -13.328,13.328l0,27.191c0,7.356 5.972,13.328 13.328,13.328l26.654,-0c7.356,-0 13.328,-5.972 13.328,-13.328l-0,-27.191Z" style="fill:none;stroke:#000;stroke-width:2px;"/><path d="M286.175,139.295c0,-7.356 -5.971,-13.328 -13.327,-13.328l-26.655,0c-7.355,0 -13.327,5.972 -13.327,13.328l0,27.191c0,7.356 5.972,13.328 13.327,13.328l26.655,-0c7.356,-0 13.327,-5.972 13.327,-13.328l0,-27.191Z" style="fill:none;stroke:#000;stroke-width:2px;"/><path d="M346.167,139.295c0,-7.356 -5.972,-13.328 -13.327,-13.328l-26.655,0c-7.355,0 -13.327,5.972 -13.327,13.328l-0,27.191c-0,7.356 5.972,13.328 13.327,13.328l26.655,-0c7.355,-0 13.327,-5.972 13.327,-13.328l0,-27.191Z" style="fill:none;stroke:#000;stroke-width:2px;"/><path d="M406.159,139.295c0,-7.356 -5.972,-13.328 -13.327,-13.328l-26.655,0c-7.355,0 -13.327,5.972 -13.327,13.328l-0,27.191c-0,7.356 5.972,13.328 13.327,13.328l26.655,-0c7.355,-0 13.327,-5.972 13.327,-13.328l0,-27.191Z" style="fill:none;stroke:#000;stroke-width:2px;"/><path d="M466.151,139.295c-0,-7.356 -5.972,-13.328 -13.327,-13.328l-26.655,0c-7.356,0 -13.327,5.972 -13.327,13.328l-0,27.191c-0,7.356 5.971,13.328 13.327,13.328l26.655,-0c7.355,-0 13.327,-5.972 13.327,-13.328l-0,-27.191Z" style="fill:none;stroke:#000;stroke-width:2px;"/><path d="M526.143,139.295c-0,-7.356 -5.972,-13.328 -13.328,-13.328l-26.654,0c-7.356,0 -13.328,5.972 -13.328,13.328l0,27.191c0,7.356 5.972,13.328 13.328,13.328l26.654,-0c7.356,-0 13.328,-5.972 13.328,-13.328l-0,-27.191Z" style="fill:none;stroke:#000;stroke-width:2px;"/><path d="M587.288,139.295c0,-7.356 -5.971,-13.328 -13.327,-13.328l-26.655,0c-7.355,0 -13.327,5.972 -13.327,13.328l0,27.191c0,7.356 5.972,13.328 13.327,13.328l26.655,-0c7.356,-0 13.327,-5.972 13.327,-13.328l0,-27.191Z" style="fill:none;stroke:#000;stroke-width:2px;"/><path d="M647.28,139.295c0,-7.356 -5.972,-13.328 -13.327,-13.328l-26.655,0c-7.355,0 -13.327,5.972 -13.327,13.328l-0,27.191c-0,7.356 5.972,13.328 13.327,13.328l26.655,-0c7.355,-0 13.327,-5.972 13.327,-13.328l0,-27.191Z" style="fill:none;stroke:#000;stroke-width:2px;"/><path d="M708.426,139.295c-0,-7.356 -5.972,-13.328 -13.328,-13.328l-26.654,0c-7.356,0 -13.328,5.972 -13.328,13.328l0,27.191c0,7.356 5.972,13.328 13.328,13.328l26.654,-0c7.356,-0 13.328,-5.972 13.328,-13.328l-0,-27.191Z" style="fill:none;stroke:#000;stroke-width:2px;"/><path d="M766.879,139.295c0,-7.356 -5.971,-13.328 -13.327,-13.328l-26.655,0c-7.355,0 -13.327,5.972 -13.327,13.328l0,27.191c0,7.356 5.972,13.328 13.327,13.328l26.655,-0c7.356,-0 13.327,-5.972 13.327,-13.328l0,-27.191Z" style="fill:none;stroke:#000;stroke-width:2px;"/><path d="M826.871,139.295c0,-7.356 -5.972,-13.328 -13.327,-13.328l-26.655,0c-7.355,0 -13.327,5.972 -13.327,13.328l-0,27.191c-0,7.356 5.972,13.328 13.327,13.328l26.655,-0c7.355,-0 13.327,-5.972 13.327,-13.328l0,-27.191Z" style="fill:none;stroke:#000;stroke-width:2px;"/><path d="M105.822,139.913c-0,-7.429 -6.032,-13.461 -13.462,-13.461l-72.56,-0c-7.43,-0 -13.461,6.032 -13.461,13.461l-0,26.924c-0,7.429 6.031,13.461 13.461,13.461l72.56,0c7.43,0 13.462,-6.032 13.462,-13.461l-0,-26.924Z" style="fill:none;stroke:#000;stroke-width:2px;"/><path d="M128.456,199.627c0,-7.356 -5.971,-13.328 -13.327,-13.328l-26.655,0c-7.355,0 -13.327,5.972 -13.327,13.328l0,27.191c0,7.356 5.972,13.328 13.327,13.328l26.655,-0c7.356,-0 13.327,-5.972 13.327,-13.328l0,-27.191Z" style="fill:none;stroke:#000;stroke-width:2px;"/><path d="M188.346,199.627c-0,-7.356 -5.972,-13.328 -13.328,-13.328l-26.654,0c-7.356,0 -13.328,5.972 -13.328,13.328l0,27.191c0,7.356 5.972,13.328 13.328,13.328l26.654,-0c7.356,-0 13.328,-5.972 13.328,-13.328l-0,-27.191Z" style="fill:none;stroke:#000;stroke-width:2px;"/><path d="M248.235,199.627c-0,-7.356 -5.972,-13.328 -13.328,-13.328l-26.654,0c-7.356,0 -13.328,5.972 -13.328,13.328l0,27.191c0,7.356 5.972,13.328 13.328,13.328l26.654,-0c7.356,-0 13.328,-5.972 13.328,-13.328l-0,-27.191Z" style="fill:none;stroke:#000;stroke-width:2px;"/><path d="M308.124,199.627c-0,-7.356 -5.972,-13.328 -13.327,-13.328l-26.655,0c-7.356,0 -13.327,5.972 -13.327,13.328l-0,27.191c-0,7.356 5.971,13.328 13.327,13.328l26.655,-0c7.355,-0 13.327,-5.972 13.327,-13.328l-0,-27.191Z" style="fill:none;stroke:#000;stroke-width:2px;"/><path d="M368.013,199.627c0,-7.356 -5.972,-13.328 -13.327,-13.328l-26.655,0c-7.355,0 -13.327,5.972 -13.327,13.328l-0,27.191c-0,7.356 5.972,13.328 13.327,13.328l26.655,-0c7.355,-0 13.327,-5.972 13.327,-13.328l0,-27.191Z" style="fill:none;stroke:#000;stroke-width:2px;"/><path d="M427.902,199.627c0,-7.356 -5.971,-13.328 -13.327,-13.328l-26.655,0c-7.355,0 -13.327,5.972 -13.327,13.328l0,27.191c0,7.356 5.972,13.328 13.327,13.328l26.655,-0c7.356,-0 13.327,-5.972 13.327,-13.328l0,-27.191Z" style="fill:none;stroke:#000;stroke-width:2px;"/><path d="M487.792,199.627c-0,-7.356 -5.972,-13.328 -13.328,-13.328l-26.654,0c-7.356,0 -13.328,5.972 -13.328,13.328l0,27.191c0,7.356 5.972,13.328 13.328,13.328l26.654,-0c7.356,-0 13.328,-5.972 13.328,-13.328l-0,-27.191Z" style="fill:none;stroke:#000;stroke-width:2px;"/><path d="M549.562,199.627c0,-7.356 -5.972,-13.328 -13.327,-13.328l-26.655,0c-7.356,0 -13.327,5.972 -13.327,13.328l-0,27.191c-0,7.356 5.971,13.328 13.327,13.328l26.655,-0c7.355,-0 13.327,-5.972 13.327,-13.328l0,-27.191Z" style="fill:none;stroke:#000;stroke-width:2px;"/><path d="M608.689,199.627c-0,-7.356 -5.972,-13.328 -13.328,-13.328l-26.654,0c-7.356,0 -13.328,5.972 -13.328,13.328l0,27.191c0,7.356 5.972,13.328 13.328,13.328l26.654,-0c7.356,-0 13.328,-5.972 13.328,-13.328l-0,-27.191Z" style="fill:none;stroke:#000;stroke-width:2px;"/><path d="M668.578,199.627c-0,-7.356 -5.972,-13.328 -13.328,-13.328l-26.654,0c-7.356,0 -13.328,5.972 -13.328,13.328l0,27.191c0,7.356 5.972,13.328 13.328,13.328l26.654,-0c7.356,-0 13.328,-5.972 13.328,-13.328l-0,-27.191Z" style="fill:none;stroke:#000;stroke-width:2px;"/><path d="M728.467,199.627c-0,-7.356 -5.972,-13.328 -13.327,-13.328l-26.655,0c-7.356,0 -13.327,5.972 -13.327,13.328l-0,27.191c-0,7.356 5.971,13.328 13.327,13.328l26.655,-0c7.355,-0 13.327,-5.972 13.327,-13.328l-0,-27.191Z" style="fill:none;stroke:#000;stroke-width:2px;"/><path d="M893.348,199.761c0,-7.43 -6.031,-13.462 -13.461,-13.462l-129.497,0c-7.43,0 -13.462,6.032 -13.462,13.462l0,26.923c0,7.43 6.032,13.462 13.462,13.462l129.497,-0c7.43,-0 13.461,-6.032 13.461,-13.462l0,-26.923Z" style="fill:none;stroke:#000;stroke-width:2px;"/><path d="M68.567,199.761c0,-7.43 -6.032,-13.462 -13.461,-13.462l-35.306,0c-7.43,0 -13.461,6.032 -13.461,13.462l-0,26.923c-0,7.43 6.031,13.462 13.461,13.462l35.306,-0c7.429,-0 13.461,-6.032 13.461,-13.462l0,-26.923Z" style="fill:none;stroke:#000;stroke-width:2px;"/><path d="M68.567,259.849c0,-7.43 -6.032,-13.462 -13.461,-13.462l-35.306,0c-7.43,0 -13.461,6.032 -13.461,13.462l-0,26.923c-0,7.43 6.031,13.462 13.461,13.462l35.306,-0c7.429,-0 13.461,-6.032 13.461,-13.462l0,-26.923Z" style="fill:none;stroke:#000;stroke-width:2px;"/><path d="M137.668,259.849c0,-7.43 -6.032,-13.462 -13.461,-13.462l-35.306,0c-7.429,0 -13.461,6.032 -13.461,13.462l-0,26.923c-0,7.43 6.032,13.462 13.461,13.462l35.306,-0c7.429,-0 13.461,-6.032 13.461,-13.462l0,-26.923Z" style="fill:none;stroke:#000;stroke-width:2px;"/><path d="M206.394,259.849c0,-7.43 -6.032,-13.462 -13.462,-13.462l-35.305,0c-7.43,0 -13.462,6.032 -13.462,13.462l0,26.923c0,7.43 6.032,13.462 13.462,13.462l35.305,-0c7.43,-0 13.462,-6.032 13.462,-13.462l0,-26.923Z" style="fill:none;stroke:#000;stroke-width:2px;"/><path d="M686.03,259.849c-0,-7.43 -6.032,-13.462 -13.462,-13.462l-35.305,0c-7.43,0 -13.462,6.032 -13.462,13.462l0,26.923c0,7.43 6.032,13.462 13.462,13.462l35.305,-0c7.43,-0 13.462,-6.032 13.462,-13.462l-0,-26.923Z" style="fill:none;stroke:#000;stroke-width:2px;"/><path d="M755.131,259.849c0,-7.43 -6.032,-13.462 -13.461,-13.462l-35.306,0c-7.43,0 -13.461,6.032 -13.461,13.462l-0,26.923c-0,7.43 6.031,13.462 13.461,13.462l35.306,-0c7.429,-0 13.461,-6.032 13.461,-13.462l0,-26.923Z" style="fill:none;stroke:#000;stroke-width:2px;"/><path d="M824.232,259.849c0,-7.43 -6.032,-13.462 -13.461,-13.462l-35.306,0c-7.429,0 -13.461,6.032 -13.461,13.462l-0,26.923c-0,7.43 6.032,13.462 13.461,13.462l35.306,-0c7.429,-0 13.461,-6.032 13.461,-13.462l0,-26.923Z" style="fill:none;stroke:#000;stroke-width:2px;"/><path d="M893.334,259.849c-0,-7.43 -6.032,-13.462 -13.462,-13.462l-35.306,0c-7.429,0 -13.461,6.032 -13.461,13.462l-0,26.923c-0,7.43 6.032,13.462 13.461,13.462l35.306,-0c7.43,-0 13.462,-6.032 13.462,-13.462l-0,-26.923Z" style="fill:none;stroke:#000;stroke-width:2px;"/><path d="M617.304,259.849c0,-7.43 -6.032,-13.462 -13.461,-13.462l-377.115,0c-7.429,0 -13.461,6.032 -13.461,13.462l-0,26.923c-0,7.43 6.032,13.462 13.461,13.462l377.115,-0c7.429,-0 13.461,-6.032 13.461,-13.462l0,-26.923Z" style="fill:none;stroke:#000;stroke-width:2px;"/></g></svg>