<svg width="150" height="170" viewBox="0 0 150 170" fill="none" xmlns="http://www.w3.org/2000/svg">
<path d="M75 169.014C64.6053 169.014 54.8684 167.049 45.7895 163.118C36.7105 159.188 28.7829 153.849 22.0066 147.101C15.2303 140.354 9.86842 132.46 5.92105 123.42C1.97368 114.379 0 104.684 0 94.3334C0 83.983 1.97368 74.2876 5.92105 65.2473C9.86842 56.207 15.2303 48.3131 22.0066 41.5657C28.7829 34.8182 36.7105 29.4792 45.7895 25.5486C54.8684 21.6181 64.6053 19.6528 75 19.6528V0L106.579 31.4445L75 62.889V43.2362C60.7895 43.2362 48.6842 48.2149 38.6842 58.1723C28.6842 68.1297 23.6842 80.1834 23.6842 94.3334C23.6842 102.981 25.6908 111.006 29.7039 118.408C33.7171 125.811 39.0789 131.805 45.7895 136.39C47.8947 132.722 51.0197 129.61 55.1645 127.055C59.3092 124.5 64.0789 122.896 69.4737 122.24C69.0789 119.489 68.5526 116.738 67.8947 113.986C67.2368 111.235 66.4474 108.68 65.5263 106.322C64.0789 107.501 62.5 108.418 60.7895 109.073C59.0789 109.728 57.2368 110.056 55.2632 110.056C50.9211 110.056 47.2039 108.516 44.1118 105.437C41.0197 102.358 39.4737 98.6571 39.4737 94.3334V86.4723C39.4737 84.245 39.1118 82.1487 38.3882 80.1834C37.6645 78.2181 36.7105 76.3839 35.5263 74.6806C42.1053 74.5496 47.9605 75.1392 53.0921 76.4494C57.5658 77.6286 61.6447 79.5611 65.3289 82.247C69.0132 84.9329 70.9211 88.9617 71.0526 94.3334C71.0526 95.5126 70.9539 96.5935 70.7566 97.5762C70.5592 98.5588 70.1974 99.5742 69.6711 100.622C67.9605 99.3121 66.25 98.133 64.5395 97.0848C62.8289 96.0367 61.0526 95.1196 59.2105 94.3334C61.4474 96.0367 64.0132 98.6571 66.9079 102.195C69.8026 105.732 72.5 109.925 75 114.772C77.6316 108.352 80.9211 102.031 84.8684 95.8074C88.8158 89.584 93.4211 83.8519 98.6842 78.6112C95.6579 80.7075 92.7632 82.9348 90 85.2932C87.2368 87.6515 84.5395 90.1408 81.9079 92.7612C80.9868 91.32 80.2632 89.715 79.7368 87.9463C79.2105 86.1775 78.9474 84.376 78.9474 82.5418C78.9474 77.039 80.8553 72.3878 84.6711 68.5883C88.4868 64.7887 93.1579 62.889 98.6842 62.889H106.579C109.605 62.889 112.105 62.4959 114.079 61.7098C116.053 60.9237 117.697 60.0065 119.013 58.9584C120.461 57.7792 121.579 56.469 122.368 55.0278C122.895 63.8061 122.434 71.6672 120.987 78.6112C119.803 84.507 117.566 89.9116 114.276 94.8248C110.987 99.738 105.789 102.195 98.6842 102.195C96.7105 102.195 94.8355 101.933 93.0592 101.408C91.2829 100.884 89.6711 100.164 88.2237 99.2466C87.3026 101.736 86.25 105.044 85.0658 109.171C83.8816 113.298 82.9605 117.72 82.3026 122.437C87.3026 123.354 91.7105 125.057 95.5263 127.547C99.3421 130.036 102.237 132.984 104.211 136.39C110.921 131.805 116.283 125.843 120.296 118.506C124.309 111.169 126.316 103.112 126.316 94.3334H150C150 104.684 148.026 114.379 144.079 123.42C140.132 132.46 134.77 140.354 127.993 147.101C121.217 153.849 113.289 159.188 104.211 163.118C95.1316 167.049 85.3947 169.014 75 169.014Z" fill="black"/>
</svg>
