<svg width="150" height="151" viewBox="0 0 150 151" fill="none" xmlns="http://www.w3.org/2000/svg">
<path d="M58.4955 51.9354L74.3677 25.6854L63.8457 8.18541C62.4189 5.80446 60.368 4.61398 57.6929 4.61398C55.0178 4.61398 52.9669 5.80446 51.5402 8.18541L34.0629 37.2926L58.4955 51.9354ZM127.513 100.507L111.641 74.0783L136.43 59.7926L147.844 78.8997C149.152 80.9235 149.865 83.1854 149.984 85.6854C150.103 88.1854 149.568 90.5068 148.379 92.6497C147.19 95.0306 145.436 96.9354 143.118 98.364C140.799 99.7925 138.273 100.507 135.538 100.507H127.513ZM107.004 150.507L78.4695 121.935L107.004 93.364V107.65H140.888L130.545 128.364C129.237 130.745 127.454 132.65 125.195 134.078C122.936 135.507 120.439 136.221 117.704 136.221H107.004V150.507ZM37.9864 136.221C35.6085 136.221 33.4387 135.596 31.477 134.346C29.5152 133.096 28.0588 131.459 27.1077 129.435C26.1565 127.531 25.7107 125.537 25.7701 123.453C25.8296 121.37 26.3943 119.435 27.4643 117.65L33.5279 107.65H64.2023V136.221H37.9864ZM20.3307 115.864L8.73865 92.6497C7.66861 90.5068 7.16332 88.2152 7.22276 85.7747C7.28221 83.3342 7.96585 81.0425 9.27367 78.8997L12.1271 74.0783L0 66.7568L39.0564 56.9354L48.8651 96.2211L36.5597 88.7211L20.3307 115.864ZM116.634 54.7926L77.5778 44.9711L89.8833 37.6497L67.5908 0.506836H92.7367C95.2335 0.506836 97.5816 1.13184 99.7811 2.38184C101.981 3.63184 103.734 5.32826 105.042 7.47112L114.316 23.0068L126.443 15.5068L116.634 54.7926Z" fill="black"/>
</svg>
