<svg xmlns="http://www.w3.org/2000/svg" version="1.1" xmlns:xlink="http://www.w3.org/1999/xlink" xmlns:svgjs="http://svgjs.dev/svgjs" viewBox="0 0 1422 800"><defs><linearGradient x1="50%" y1="0%" x2="50%" y2="100%" id="ssscribble-grad"><stop stop-color="hsl(206, 75%, 49%)" stop-opacity="1" offset="0%"></stop><stop stop-color="hsl(331, 90%, 56%)" stop-opacity="1" offset="100%"></stop></linearGradient></defs><g fill="none" stroke-width="1.5" stroke="url(#ssscribble-grad)" stroke-linecap="round"><path d="M1317.63 541.23C1396.86 574.1 1407.69 592.96 1351.47 596.97 1246.72 599.07 1122.07 584.02 1009.32 553.23 912.91 507.55 983.86 482.62 1077.72 576.55 1135.76 687.95 1171.54 822.38 1182.94 949.28 1176.57 1030.51 1150.28 1042.22 1111.66 973.18 1063.79 854.2 1012.97 725.5 965.18 647.13 915.49 664.51 872.91 774.62 840.05 932.46 807.18 1062.7 785.6 1098.69 773.32 1029.89 759.14 889.64 750.18 738.08 741.11 632.54 722.78 603.45 694.94 649.49 650.67 739.38 588.62 845.61 505.66 923.63 404.55 954.38 299.33 938.26 196.96 878.01 115.93 792.93 72.5 690.52 76.6 591.19 132.13 505.02 220.79 424.32 326.74 359.94 418.81 309.41 462.35 262.41 444.86 223.44 365.63 190.58 245.58 157.72 128.2 132.52 48.81 117.54 24 106.1 63.3 110.69 151.75 134.44 268.69 163.66 386.96 208.88 484.35 260.65 550.22 295.08 578.59 308.16 576.02 281.23 545.98 207.42 505.04 90.45 465.54 -49.99 424.25 -174.1 396.91 -249.63 385.56 -244.64 380.23 -163.2 388.96 -30.35 408.46 97.22 430.41 153.35 458.78 110.73 491.64 -19.47 524.5 -177.32 560.3 -280.8 600.32 -285.52 642.8 -194.48 693.84 -47.08 756.12 95.99 824.42 189.12 905.88 206.89 997.81 159.88 1087.96 67.2 1176.07 -28.26 1249.19 -96.6 1294.83 -130.5 1305.42 -117.25 1273.77 -67.99 1210.59 8.86 1121.79 97.12 1028.94 182.67 964.58 270.41 943.99 345.24 981.47 405.11 1073.54 463.07 1197.58 508.37 1317.63 541.23Q1317.63 541.23 1317.63 541.23" opacity="0.46"></path><path d="M1283.63 384.67C1359.19 415.18 1376.14 429.8 1334.11 430.1 1246.25 431.38 1133.52 421.28 1022 405.65 930.14 399.81 873.11 401.47 853.46 422.26 870.14 469.61 910.51 547.27 960.51 654.24 1017.92 772.06 1064.84 888.21 1095.35 974.83 1115.63 1008.19 1117.5 976.92 1104.62 884.45 1083.52 767.18 1054.11 659.44 1021.34 607.48 986.3 640.92 952.32 751.11 921.81 898.46 891.3 1021.87 865.69 1065.89 843.19 1018.13 818.41 900.28 792.31 756.75 760.53 636.71 720.53 571.48 668.41 573.32 601.1 627.42 523.56 717.08 432.84 805.63 335.43 869.34 245.43 903.88 168.89 897.58 120.44 859.15 108.31 795.67 137.98 719.6 207.47 643.38 296.62 562.97 391.99 492.43 468.07 435.07 498.32 378.6 475.19 334.76 399.63 304.25 288.74 273.73 178.18 257.98 97.02 256.91 59.48 256.72 77.53 271.74 142.7 299.27 240.77 322.61 351.36 348.44 454.48 364.89 539.76 356.31 596.5 318.81 625 244.29 626.84 140.59 611.08 15.86 587.76 -105.56 555.21 -191.45 527.82 -220.67 510.58 -177.82 494.39 -80.16 490.78 46 499.54 152.08 509.57 188.08 530.09 137.9 560.6 14.52 591.11 -132.83 630.18 -236.85 677.7 -258.54 726.48 -194.83 785.6 -69.72 854.67 69.91 924.79 184.75 1002.43 243.4 1082.01 241.82 1152.36 186.97 1211.93 107 1250.08 29.17 1261.57 -37.8 1241.02 -71.65 1187.51 -71.97 1116.16 -45.74 1032.93 2.84 957.24 61.56 914.43 130.07 913.75 195.68 963.06 251.95 1055.99 309.19 1172.75 354.16 1283.63 384.67Q1283.63 384.67 1283.63 384.67" opacity="0.70"></path><path d="M1249.63 236.1C1321.18 264.26 1343.14 282.34 1314.1 292.83 1243.14 305.96 1144.8 316.97 1039.66 332.31 942.76 359.01 869.32 400.24 825.44 462.11 812.55 540.71 825.23 638.72 853.99 747.48 897.35 846.87 940.49 926.33 975.98 965.3 1009.13 954.67 1028.63 891.89 1034.49 789.39 1035.14 683.2 1024.88 599.87 1006.52 572.83 986.29 619.35 961.35 727.83 933.18 864.46 905.01 980.57 874.96 1030.78 842.07 1002.26 807.3 908.07 766.32 779.03 716.86 654.89 662.19 564.03 596.31 526.05 519.75 538.9 440.84 595.33 357.26 670.51 276.98 742.46 188.28 823.59 187.44 814.8 287.78 749.91 372.28 693.45 454.59 637.34 514.67 587.83 532.85 536.85 505.18 496.05 433.63 467.89 331.87 439.72 228.75 425.52 147.74 423.38 100.43 419.77 99.75 424.64 142.02 432.28 217.97 430.35 313.79 420 412.91 391.94 506.45 341.71 581.99 265.76 635.61 165.47 667.82 56.6 680.85 -51.96 681.27 -137.72 669.08 -179.9 654.6 -167.19 643.67 -96.98 629.85 6.5 624.56 119.5 629.89 202.84 635.21 220.5 651.61 164.61 679.77 48.52 707.94 -88.11 746.54 -190.9 794.34 -226.57 842.14 -188.67 898.66 -89.32 961.3 37.51 1021.04 160.65 1081.91 248.7 1137.51 288.67 1180.5 279.03 1207.91 232.97 1212.61 170.49 1195.91 98.65 1153.77 41.07 1089.55 5.88 1019.76 -12.57 949.2 -7.42 893.9 14.69 872.27 48.16 888.98 88.38 947.16 128.37 1039.04 171.01 1147.87 207.93 1249.63 236.1Q1249.63 236.1 1249.63 236.1" opacity="0.09"></path><path d="M1215.63 173.06C1282.84 198.88 1308.69 224.13 1291.25 250.59 1236.68 279.68 1154.33 314.85 1059.78 360.02 964.62 413.01 882.53 480.48 821.24 562.39 783.25 648.26 768.6 739.62 772.09 824.99 792.78 888.88 820.44 923.65 848.06 917.56 879.53 873.27 903.5 793.05 917.46 693.21 929.8 605.28 931.56 547.82 923.25 543.21 913.94 599.66 896.18 704.77 870.36 830.46 844.54 938.83 811.88 993.38 772.51 981.92 732.12 911.47 683.39 801.76 626.3 683.03 567.6 578.58 501.11 510.13 429.84 483.93 362.43 499.39 297.7 543.91 243.18 601.14 205.84 666.84 189.89 721.13 200.99 757.09 235.39 780.5 294.33 783.65 370.56 771.17 446.18 749.18 513.84 719.4 558.45 687.59 565.92 653.29 534.84 621.9 467.63 596.08 374.96 570.26 279.81 551.24 200.74 536.84 146.65 519.96 130.33 502.76 151.34 480.01 203.95 447.75 280.08 402.08 367.05 338.88 457.96 263.12 541.04 171.77 610.13 72.23 665.4 -18.83 703.98 -93.97 728.83 -136.31 741.54 -137 747.16 -91.71 750.69 -6.19 749.3 93.59 751.34 188.61 759.85 249.1 767.43 250.62 783.52 190.86 809.33 82.51 835.15 -43.18 869.49 -143.07 910.59 -189.58 950.78 -175.01 995.71 -102.87 1041.85 3.97 1083.06 122.74 1119.96 226.12 1147.05 297.3 1161.99 330.28 1160.48 326.12 1139.05 296.08 1103.8 244.55 1051.33 190.26 987.3 144.18 900.73 89.59 853.98 74.34 933.54 99.84 1022.58 122.07 1122.96 147.24 1215.63 173.06Q1215.63 173.06 1215.63 173.06" opacity="0.67"></path><path d="M1181.28 228.34C1243.94 251.81 1272.73 282.64 1265.52 321.03 1226.46 360.85 1160.91 410.53 1080.12 470.4 992.54 532.42 909.42 603.56 838.66 679.55 782.79 749.26 745.32 812.65 724.63 859.51 719.79 882.09 725.55 875.15 736.52 834.78 754.77 771.06 771.36 687.79 782.68 601.14 795.33 536.04 800.06 503.94 795.64 518.41 791.12 581.61 777.38 681.78 753.91 796.35 730.43 896.54 698.34 953.61 658.59 956.68 618.75 908.95 571.32 821.56 517.99 716.13 465.99 610.12 410.75 523.6 356.33 466.94 309.18 443.06 269.72 449.44 243.8 476.62 233.73 521.92 243.36 570.01 274.8 612.01 321.11 652.47 383.18 679.17 453.56 691.65 543.24 696.26 580.71 655.38 501.28 621.83 417.56 598.36 330.83 572.68 255.38 543.69 197.56 512.64 169.22 474.57 171.84 426.97 201.95 373.81 256.04 308.45 325.18 231.82 404.34 153.64 483.95 71.85 557.35 -4.2 624.68 -62.14 680.25 -96.35 724.02 -96.92 758.81 -64.69 784.75 0.76 804.97 89.57 820.21 177.8 834.25 251.83 849.81 290.5 864.1 278.37 882.41 216.54 905.88 116.35 929.35 1.78 956.88 -93.62 986.85 -147.76 1015.56 -153.18 1044.22 -107.72 1069.65 -25.41 1090.11 78.43 1102.83 182.75 1104.22 270.91 1096.62 335.72 1074.75 370.49 1038.18 378.68 995.55 362.58 943.76 332.89 889.04 299.36 844.35 259.55 811.31 227.06 798.4 205.71 812.99 186.52 854.68 179.54 921.57 183.99 1006.08 189.86 1097.56 204.87 1181.28 228.34Q1181.28 228.34 1181.28 228.34" opacity="0.49"></path><path d="M1147.66 373.37C1205.21 394.5 1235.47 425.64 1236.51 465.66 1211.18 505.65 1161.98 554.08 1096.7 608.59 1021.17 660.58 943.87 714.36 871.86 764.34 807.12 803.32 754.78 829.33 715.6 835.73 688.43 822.41 672.2 785.48 663.66 726.47 662.94 658.44 664.81 584.58 665.91 518.51 669.93 477.98 669.81 468.97 663.6 498.6 657.93 565.37 644.99 659.17 623.86 762.47 602.74 854.08 574.44 911.88 540.27 926.73 506.63 899.67 468.32 835.71 427.69 749.21 389.99 652.19 353.33 560.86 321.48 486.35 290.42 418.09 307.99 420.05 364.38 459.14 414.4 492.82 472.75 521.38 532.79 541.24 601.18 564.87 610.48 559.04 535.66 531.97 460.97 510.84 383.01 481.48 312.49 444.21 253.5 406.11 216.52 358.86 203.97 303.02 213.66 246.56 245.43 183.2 293.6 116.97 354.58 57.11 421.75 3.21 489.09 -36.71 556.74 -56.83 618.31 -52.89 671.78 -21.12 720.52 31.39 761.19 103.77 794.83 185.3 824.87 256.32 850.56 308.26 873.53 327.16 895.39 304.16 916.59 242.08 937.71 150.47 958.84 47.17 978.89 -42.34 996.87 -100.96 1013.74 -122.44 1026.48 -101.41 1033.06 -45.39 1036.02 36.16 1030.15 128.96 1013.97 218.99 993.06 300 961.82 361.97 921.86 402.98 882.21 424.27 840.08 428.59 801.09 422.16 774.91 404.74 762.08 385.75 767.88 370.37 795.9 352.46 844.9 342.47 912.03 342.32 990.7 342.13 1072.93 352.24 1147.63 373.36Q1147.66 373.37 1147.66 373.37" opacity="0.79"></path><path d="M1113.65 532.22C1165.91 551 1196.73 576.85 1204.44 608.2 1191.16 638.6 1157.44 672.49 1108.34 706.76 1047.76 736.54 981.51 761.99 915.27 778.65 850.35 785.12 792.05 777.54 742.41 753.25 700 717.52 666.63 666.95 641.07 605.79 621.79 546.56 607.35 491.04 595.44 449.19 586.64 432.29 577.45 442.67 566.09 483.14 555.51 550.45 541.22 636.6 522.44 728.52 503.66 811.15 481.29 867.94 456.45 891.63 432.4 882.36 407.43 841.09 383.69 776.6 363.05 696.51 346.58 612.31 336.91 533.79 333.53 464.27 339.94 410.77 357.75 374.14 382.77 353.04 418.81 345.52 464.18 346.93 510.86 357.58 560.28 370.29 607.09 380.87 653.94 397.96 639.22 396.46 569.65 373.16 503.81 354.38 434.87 326.75 370.57 291.52 313.1 256.63 271.3 215.03 247.81 169.12 240.94 126 252.68 82.36 279.86 42.77 319.77 12.42 368.79 -7.01 422.21 -10.52 479.95 1.49 536.55 32.73 589.19 82.7 640.97 141.67 687.07 209.02 726.88 275.35 764.97 326.08 797.61 356.66 825.11 358.68 851.96 327.75 874.81 267.15 893.59 184.52 912.37 92.6 926.18 10.25 934.76 -49.8 942.67 -83.03 944.19 -82.72 938.64 -52.05 931.38 3.55 916.21 75.91 893.37 154.69 869.67 235.4 840.02 308.23 806.89 368.58 778.09 417.48 751.33 452.01 730.96 474.49 723.33 486.77 728.42 492.24 749.05 495 786.3 493.27 838.78 493.54 903.49 498.55 975.03 502.62 1047.78 513.43 1113.62 532.21Q1113.65 532.22 1113.65 532.22" opacity="0.14"></path><path d="M1079.62 622C1158.85 654.87 1166.82 690.67 1112.4 715.25 1014.96 724.66 900.37 698.71 796.51 627.8 703.93 544.09 635.77 450.81 588.02 396.43 549.54 424.75 516.85 536.65 483.99 694.51 451.13 824.72 421.21 857.67 402.74 793.67 393.54 664.95 410.41 522.64 459.93 410.49 520.72 332.3 600.46 294.33 673.81 276.21 704.14 272.85 682.85 261.17 603.62 228.31 483.57 195.45 372.19 144.51 302.66 90.93 277.77 52.1 307.63 38.78 371.67 73.91 459.02 142.99 548.91 250.44 624.29 355.07 699.42 394.99 755.68 348.72 788.54 218.51 821.4 60.65 827.75 -37.92 809.57 -42.15 791.13 36.3 752.53 164.43 708.25 291.22 687.29 405.19 692.28 482.43 741.25 529.97 834.87 562.34 959.57 589.14 1079.62 622Q1079.62 622 1079.62 622" opacity="0.28"></path><path d="M1045.66 595.96C1117.19 624.13 1136.28 635.27 1107 624.46 1041.44 606.37 953.55 558.37 864.59 486.5 774.69 423.79 699.15 371.73 641.99 362.01 589.51 414.42 549.5 523.85 521.34 660.47 493.17 776.58 479.51 823.55 483.17 796.43 491.52 711.98 523.11 597.86 576.09 489.02 628.14 388.95 686.14 316.33 731.07 268.14 739.69 230.55 709.19 201.24 637.66 173.07 535.91 144.91 438.09 120.55 367.34 109.33 323.76 108.71 321.31 137.37 350.08 200.52 400.61 272.45 462.32 356.69 519.96 420.49 581.12 426.97 629.37 368.58 657.54 252.47 688.42 66.84 661.08 57.4 638.58 197.99 646.73 306.79 679.05 398.74 743.27 465.64 834.65 525.26 943.88 567.79 1045.63 595.95Q1045.66 595.96 1045.66 595.96" opacity="0.61"></path><path d="M1011.66 467.65C1074.19 491.12 1100.07 490.74 1090.83 468.93 1054.42 447.01 996.42 407.01 931.11 360.57 858.8 331.83 792.03 321.42 738.21 346.15 685.25 411.36 645.48 511.91 622.01 626.47 596.06 753.58 634.08 703.03 690.69 582.26 725.25 491.78 758.35 413.36 777.55 354.34 769.58 299.22 734.19 259.76 671.66 236.29 588.02 212.82 505.81 207.56 440.08 222 388.26 240.34 364.33 282.13 365.2 341.85 381.84 394.69 412.7 444.12 447.44 468.74 486.51 450.02 520.95 386.66 544.42 286.47 567.9 171.9 578.18 80.87 579.79 32.86 585.72 25.34 591.49 60.65 605.61 120.16 635.5 197.35 684.32 273.99 753.34 336.58 836.27 399.07 927.99 444.17 1011.63 467.64Q1011.66 467.65 1011.66 467.65" opacity="0.37"></path><path d="M977.63 304.01C1044.09 323.4 1035.04 296.07 980.71 277.28 933.7 281.46 886.32 302.78 845.56 347.57 803.64 414.37 771.21 500.54 752.43 592.46 731.98 702.02 756.94 724.39 788.37 658.92 802.99 599 813.29 539.64 812.45 490.42 793.89 440.37 757.91 403.71 705.63 384.93 639.79 366.15 574.49 367.03 518.7 384.54 468.15 401.22 434.6 431.27 418.5 466.58 411.21 490.31 417.07 504.67 431.12 498.46 448.35 464.54 468.14 403.11 486.92 320.46 505.7 228.54 521.69 149.98 536.99 96.95 555.49 65.92 578.94 64.51 610.84 84.94 651.55 120.94 705.02 165.05 769.33 206.29 838.88 250.68 911.79 285.24 977.63 304.01Q977.63 304.01 977.63 304.01" opacity="0.45"></path><path d="M943.66 190.49C1015.19 218.65 1028.46 229.11 1000.89 252.42 951.45 310.64 897.12 421.85 868.95 558.47 840.78 674.59 844.12 714.94 856.64 692.14 847.29 634.39 811.19 569.61 739.66 541.45 637.9 513.28 550.73 527.05 505.09 547.89 472.89 533.77 476.07 470.59 504.24 354.47 532.4 217.85 580.22 129.47 649.34 108.17 731.9 121.77 841.9 162.32 943.66 190.49Q943.66 190.49 943.66 190.49" opacity="0.29"></path><path d="M909.63 186.28C995.17 223.84 970.33 346.47 932.78 524.46 895.22 666.89 859.17 661.69 773.63 624.13 635.23 586.58 553.01 530.89 590.57 388.46 628.12 210.47 771.23 148.73 909.63 186.28Q909.63 186.28 909.63 186.28" opacity="0.88"></path></g></svg>