<svg xmlns="http://www.w3.org/2000/svg" version="1.1" xmlns:xlink="http://www.w3.org/1999/xlink" xmlns:svgjs="http://svgjs.dev/svgjs" viewBox="0 0 1422 800"><defs><linearGradient x1="50%" y1="0%" x2="50%" y2="100%" id="ssscribble-grad"><stop stop-color="hsl(206, 75%, 49%)" stop-opacity="1" offset="0%"></stop><stop stop-color="hsl(331, 90%, 56%)" stop-opacity="1" offset="100%"></stop></linearGradient></defs><g fill="none" stroke-width="3.5" stroke="url(#ssscribble-grad)" stroke-linecap="round" stroke-dasharray="20"><path d="M2058.21 135.51C2003.81 153.63 1916.71 170.07 1809.03 184.94 1694.83 199.9 1589.25 213.47 1505.61 225.89 1454.05 238.71 1440.46 250.78 1465.41 262.49 1525.65 275.11 1612.12 287.98 1713.27 301.65 1817.59 316.96 1910.91 333.87 1982.09 353.01 2023.78 374.65 2030.29 399.4 2001.39 427.89 1940.42 459.6 1854.18 495.71 1752.23 536.63 1644.41 580.93 1542.26 630.1 1455.52 684.07 1391.48 740.41 1355.78 800.56 1350.19 863.68 1374.32 926.6 1423.82 990.2 1492.31 1052.86 1573.79 1111.21 1658.34 1165.3 1737.63 1213.04 1805.83 1251.85 1855.22 1281.03 1881.83 1298.86 1884.22 1304.68 1861.56 1297.67 1816.11 1277.52 1750.85 1246.43 1671.02 1204.29 1582.45 1153 1489.62 1097.51 1399.51 1038.97 1317.24 981.27 1245.91 930.44 1189.89 888.49 1150.89 859.54 1129.58 847.81 1125.8 854.58 1137.83 881.49 1164.63 928.12 1202.37 993.15 1247.59 1073.77 1299.06 1164.28 1351.49 1260.29 1401.76 1355.3 1449.39 1441.4 1489.91 1513.27 1521.7 1564.86 1545.23 1591.73 1558.08 1591.7 1560.32 1564.26 1552.83 1512.94 1535.44 1441.41 1509.38 1356.45 1475.24 1268.33 1434.61 1184.63 1389.11 1114.82 1338.56 1068.35 1285.59 1050.16 1231.55 1064.03 1175.46 1110.09 1120.22 1184.76 1066.71 1281.45 1013.27 1389.79 962.61 1499.14 915.1 1597.45 868.76 1673.14 825.88 1717.86 786.41 1725.83 748.39 1696.46 713.59 1632.63 681.75 1541.9 651.13 1436.97 623.04 1330.1 597.15 1235.52 572.07 1167.18 548.71 1133.74 526.81 1140.76 505.29 1188.39 484.85 1270.76 465.3 1377.43 445.85 1493.88 427.09 1604.45 408.97 1693.5 390.84 1748.25 373.58 1760.59 357.23 1729.51 340.99 1659.83 325.88 1561.28 312.1 1447.54 298.7 1333.4 287.02 1234.08 277.34 1161.95 268.48 1125.61 262.09 1128.77 258.53 1169.69 256.19 1243.07 257.12 1337.93 261.59 1441.61 267.51 1542.29 277.17 1626.15 290.63 1683.23 305.26 1707.74 323.38 1696.1 344.66 1650.15 366.01 1574.85 389.46 1478.67 414.14 1372.03 436.77 1264.9 458.73 1168.59 478.68 1091.87 493.58 1040.79 504.01 1019.38 508.4 1027.77 504.71 1064.31 492.77 1123.27 471.4 1197.47 440.3 1280.69 399.04 1362.9 347.58 1436.28 287.85 1495.73 219.88 1534.5 145.3 1549.71 68.08 1540.79 -10.79 1507.96 -88.18 1454.23 -159.34 1382.81 -222.49 1299.38 -274.15 1209.7 -311.03 1117.85 -331.58 1030.54 -334.02 952.29 -318.77 885.63 -285.93 834.36 -237.21 799.66 -177.53 781.86 -109.43 780.45 -38 793.55 29.17 820.22 88.2 856.64 133.31 899.58 158.6 948.17 161.75 997.38 140.48 1044.42 95.01 1089.24 27.4 1127.56 -58.33 1158.01 -155.16 1181.35 -256.57 1195.12 -354.22 1199.43 -438.87 1195.29 -503.84 1182.26 -542.71 1161.42 -551.87 1133.36 -530.19 1099.3 -479.44 1060.62 -405.98 1017.12 -316.37 971.04 -220.33 923.59 -130.15 873.7 -54.93 824.06 -4.18 775.5 14.48 726.22 -1.46 678.97 -51.78 634.18 -131.6 589.62 -232.74 547.88 -344.05 509.07 -452.19 470.81 -544.83 435.44 -610.38 402.91 -640.65 370.86 -631.51 341.43 -583.53 314.49 -503.48 287.82 -400.61 263.4 -288.23 241.16 -182.36 218.99 -96.18 198.84 -41.78 180.71 -27.57 162.59 -54.73 146.71 -118.83 133.09 -211.79 119.54 -320.03 108.4 -429.05 99.77 -561.32 88.61 -611.97 81.31 -519.37 85.83 -422.4 90.47 -312.94 98.33 -203.74 109.34 -106.4 120.58 -31.85 134.6 12.67 151 23.24 166.69 0.14 183.8 -52.47 201.53 -128.88 216.81 -218.74 231.1 -311.64 243.19 -398.92 250.47 -469.8 253.52 -517.22 250.98 -537.38 241.23 -527.51 224.07 -489 198.47 -425.18 164.41 -342.02 121.31 -246.95 69.12 -146.71 9.81 -50.19 -56.91 35.54 -129.66 105.52 -204.62 154.71 -281.28 181.13 -356.83 184.12 -426.73 165.31 -489.6 128.01 -542.21 74.9 -581.25 12.31 -605.25 -54.25 -612.32 -121.58 -602.49 -182.8 -575.54 -233.83 -532.64 -273.03 -478.15 -296.46 -414.02 -303.23 -344.77 -293.68 -277.68 -267.95 -216.26 -227.96 -166.23 -175.09 -133.89 -112.57 -121.84 -43.48 -133.06 30.91 -168.43 106.31 -226.71 180.04 -305.03 251.7 -397.26 317.63 -497.69 376.49 -598.45 428.65 -690.19 472.14 -766.02 506.99 -818.74 533.79 -843.3 552.47 -837.37 563.95 -801.05 568.48 -739.08 567.49 -656.8 562.27 -562.96 552.28 -469.6 539.97 -385.96 526.48 -322.43 510.45 -288.24 494.79 -287.59 480.31 -322.32 464.93 -389.62 451.69 -482.9 441 -592.22 430.36 -704.52 422.69 -807.21 418.09 -887.6 413.91 -935.53 412.83 -944.87 414.8 -913.85 417.18 -847.05 422.45 -752.2 430.49 -641.65 438.76 -531.5 449.61 -435.64 462.95 -367.76 476.35 -338.48 492.12 -351.71 510.24 -406.44 528.37 -495.47 548.63 -605.13 571.01 -719.76 593.47 -824.62 618.17 -904.3 645.2 -948.37 672.45 -951.82 702.23 -913.94 734.61 -840.3 767.39 -740.42 802.95 -627.38 841.31 -515.46 880.08 -417.73 921.63 -346.06 965.82 -308.04 1010.06 -307.37 1056.53 -342.64 1104.78 -408.09 1152.14 -496.16 1200.33 -594.5 1248.53 -691.07 1294.18 -775.98 1338.29 -838.13 1379.68 -870.91 1416.31 -871.51 1448.31 -839.3 1474.39 -778.1 1493.5 -693.55 1505.02 -594.39 1507.97 -490.1 1502.87 -388.97 1488.71 -300.58 1465.41 -231.71 1435.41 -186.72 1397.89 -168.47 1354.16 -176.46 1308.36 -209.17 1260.42 -261.51 1212.96 -327.45 1170.83 -402.31 1134.76 -477.52 1107.82 -546.64 1093.75 -605.86 1093.43 -648.89 1108.75 -672.93 1140.38 -677.25 1188.12 -660.85 1251.07 -625.38 1325.85 -572.68 1410.26 -506.42 1500.2 -430.73 1589.36 -348.17 1673.96 -264.23 1748.47 -182.8 1807.16 -105.59 1846.77 -36.99 1863.92 21.05 1857.67 68.16 1828 102.62 1776.88 124.74 1710.01 134.85 1631.71 134.08 1549.01 124.14 1471.48 105.27 1405.18 80.5 1357.52 51.91 1335.18 19.01 1340.77 -14.39 1375.68 -46.71 1437.85 -79.23 1522.76 -108.36 1623.32 -133.3 1729.5 -155.86 1831.9 -173.24 1920.08 -185.38 2001.54 -195.94 1951.4 -187.93 1830.13 -171.79 1729.56 -157.39 1627.93 -140.43 1537.95 -121.56 1472.25 -101.05 1438.59 -79.45 1442.36 -57.31 1484.28 -34.26 1559.74 -11.29 1660.1 11.18 1772.7 34.05 1883.65 56.04 1978.43 76.87 2044.34 97.8 2072.42 117.38 2058.21 135.51Q2058.21 135.51 2058.21 135.51" opacity="0.27"></path><path d="M2005.69 131.52C1954.85 148.74 1874.03 167.31 1773.44 187.25 1664.95 207.28 1561.61 228.84 1475.25 252.08 1415.35 275.62 1388.27 301.13 1396.13 328.79 1437.82 357.06 1507.3 387.82 1595.89 421.26 1792.12 490.63 1938.07 571.89 1974.66 664.87 1889.09 759.14 1713.76 860.7 1514.61 963.63 1356.98 1054.5 1291.48 1132.24 1328.48 1185.94 1449.52 1208.13 1603.93 1194.07 1738.07 1141.19 1815 1063.01 1807.47 965.05 1720.96 866.75 1575 798.09 1405.8 773.48 1248.82 811 1126.73 912.36 1059.85 1066.13 1048.35 1244.8 1087.27 1404.13 1158.16 1509 1240.96 1527.66 1327.43 1456.8 1395.32 1315.82 1436.69 1151.39 1453.68 1029.31 1440.84 994.72 1403.94 1072.72 1346.94 1242.88 1276.8 1449.41 1201.16 1615.01 1117.93 1673.39 1037.62 1600.29 964.05 1424.18 926.85 1322.51 891.88 1226.2 859.31 1147.07 826.75 1095.93 796.67 1078.65 769.15 1098.36 741.67 1153.58 716.73 1238.11 694.36 1342.2 672.02 1453 652.21 1557.05 634.99 1641.01 617.78 1693.98 603.36 1708.81 591.7 1684.28 580.07 1623.99 571.23 1535.53 565.17 1430.11 559.16 1320.13 555.95 1218.93 555.49 1138.02 555.04 1086.18 557.26 1068.72 561.98 1086.48 570.62 1214.71 587.15 1406.3 607.91 1574.72 621.08 1652.38 630.07 1604.18 627.4 1452.08 604.63 1250.24 559.29 1071.41 485.75 970.99 387.85 973.7 265.08 1067.69 125.54 1210.95 -10.32 1359.03 -132.45 1458.27 -220.64 1481.63 -258.41 1424.64 -238.8 1300.97 -161.85 1142.05 -49.99 975.17 76.23 835.36 181.53 741.15 227.38 698.76 196.57 706.83 83.79 751.51 -86.19 824.61 -273.97 903.41 -425.72 973.28 -493.44 1033.22 -455.99 1068.41 -323.59 1078.38 -149.69 1068.41 3.22 1037.62 69.35 992.58 13.34 935.46 -149.05 872.99 -358.56 810.64 -453.8 777.92 -529.13 746.25 -575.87 716.03 -588.78 685.35 -565.94 656.49 -509.43 629.71 -426.49 602.76 -325.72 578.08 -218.95 555.81 -120.09 533.52 -40.14 513.71 10.69 496.49 25.22 479.27 2.35 464.85 -54.43 453.15 -138.73 441.41 -239.24 432.31 -343.73 425.72 -440.98 418.97 -518.62 414.54 -568.01 412.2 -584.45 409.4 -565.67 408.32 -514.27 408.57 -338.72 405.98 -131.47 404.67 26.12 399.33 78.54 381.9 13.31 351.54 -134.12 301.85 -308.15 232.22 -437.62 138.85 -477.96 22.38 -417.36 -104.01 -273.86 -237.7 -92.17 -363.88 82.66 -461.63 204.62 -520.96 252.44 -527.85 223.27 -482.91 136.05 -390.4 21.84 -268.64 -95.73 -154.84 -181.94 -74.14 -220.74 -57.79 -209.12 -121.79 -147.46 -259.36 -49.55 -443.29 75.2 -622.4 206.8 -749.77 331.27 -783.22 446.42 -713.53 539.52 -562.76 609.89 -386.16 661.32 -259.28 694.01 -233.47 713.96 -330.54 722.17 -518.38 726.07 -726.41 730.77 -867.95 731.56 -892.37 733.55 -880.79 737.11 -834 740.2 -758.16 745.24 -661.19 752.46 -554.62 759.52 -452.61 768.95 -366.71 780.92 -308.12 792.85 -285.3 807.38 -300.98 824.59 -353.93 841.81 -437.88 861.5 -541.05 883.58 -650.12 905.62 -752.5 929.96 -834.47 956.44 -886.3 982.75 -902.62 1011 -881.13 1040.93 -824.96 1070.39 -740.79 1101.16 -638.63 1132.83 -530.31 1193.06 -340.9 1252.95 -251.33 1307.21 -290.25 1349.73 -436.42 1378.19 -620.53 1386.43 -765.46 1375.73 -818.24 1340.82 -755.61 1282.21 -602.83 1214.27 -407.69 1137.56 -233.34 1065.86 -126.62 1021.01 -109.41 1010.61 -175.92 1048.25 -294.58 1136.32 -432.6 1269.81 -543.4 1432.52 -599.65 1591.85 -592.05 1722.04 -520.18 1791.87 -402.26 1784.71 -254.7 1701.09 -105.5 1562.11 25.75 1416.27 131.7 1306.13 200.66 1276.24 235.01 1347.3 237.85 1504.82 218.31 1704.09 187.11 1876.77 143.86 1964.42 103.45 1931.42 71.65 1793.26 41.13 1602.45 23.66 1440.18 19.22 1395.43 18.25 1382.51 20.24 1403.99 24.98 1458.43 30.34 1540.3 38.12 1640.96 48.11 1748.85 58.4 1851.94 70.62 1937.96 84.59 1996.47 98.65 2020.22 114.31 2005.69 131.52Q2005.69 131.52 2005.69 131.52" opacity="0.69"></path><path d="M1953.21 417.92C1831.14 450.54 1635.07 493.49 1447.71 546.06 1342.9 598.4 1359.04 659.71 1482.7 728.25 1665.11 794.43 1830.26 864.29 1916.63 933.44 1895.78 993.35 1773.66 1044.36 1593.59 1079.64 1409.69 1095.68 1278.25 1088.02 1230.86 1053.29 1274.11 1000.08 1385.31 926.74 1524.61 842.63 1656.19 769.14 1738.19 713.47 1752.18 693.04 1696.75 721.53 1583.71 801.54 1438.44 929.9 1282.08 1085.24 1143.97 1246.39 1040.89 1380.94 979.16 1457.14 961.92 1458.62 980.64 1381.51 1030.13 1251.35 1093.47 1101.18 1157.8 979.69 1222.45 934.4 1271.89 984.58 1302.75 1125.39 1320.33 1315.16 1318.76 1496.14 1301.69 1605.07 1273.74 1602.6 1236.34 1488.23 1194.16 1304.15 1147.16 1128.66 1100.39 1031.63 1056.81 1059.62 1012.15 1206.05 972.91 1411.83 940.29 1588.5 907.67 1656.98 882.44 1586.76 863.57 1412.21 843.61 1207.2 827.78 1056.79 813.26 1017.33 793.92 1100.25 770.89 1265.16 739.67 1442.89 697.55 1568.94 641.19 1592.58 567.08 1508.4 479.7 1344.16 375.13 1154.18 256.92 995.53 139.03 908.27 23.69 911.25 -76.06 991.44 -145.05 1123.14 -176.37 1260.1 -161.31 1364.03 -104.9 1413.54 -11.58 1393.07 102.02 1310.92 204.53 1181.43 276.85 1031.28 293.77 885.58 241.26 758.23 122.94 667.59 -42.59 616.87 -215.85 604.74 -358.67 624.16 -431.01 663.39 -412.72 719.67 -307.86 776.48 -147.87 825.58 8.28 871.11 109.16 901.01 111.61 915.03 6.83 920.47 -173.89 912.24 -368.89 893.68 -505.14 869.92 -530.88 840.37 -432.52 808.03 -251.61 774.28 -58.85 740.49 63.21 707.87 58.37 675.25 -67.57 644.58 -257.75 614.79 -436.32 583.59 -527.37 550.54 -497.61 512.79 -360.03 469.84 -166.63 417.65 12.64 353.03 119.71 279.83 122.69 192 30.66 89.94 -122.98 -15.67 -279.37 -127.61 -387.33 -237.45 -417.39 -330.24 -357.87 -401.67 -228.19 -439.83 -58.45 -439.39 108.36 -397.32 237.84 -316.64 310.33 -217.62 317.06 -112.26 268.63 -25.51 177.9 13.89 73.37 -6.33 -21.67 -94.35 -96.65 -236.78 -133.17 -410.06 -129.26 -575.73 -88.25 -689.89 -15.75 -724.51 76.72 -666.36 185.3 -536.82 295.59 -373.42 399.65 -233.08 500.36 -172.78 587.4 -217.65 660.34 -362.08 725.17 -558.22 777.95 -738.72 821.65 -834.25 860.39 -807.4 894.37 -666.61 926.25 -468.07 956.78 -299.95 987.86 -233 1020.48 -301.44 1053.1 -478.09 1086.49 -680.57 1119.49 -820.57 1151.14 -842.15 1179.78 -735.54 1202.55 -547.47 1224.19 -285.82 1194.06 -370.3 1135.32 -616.03 1087.79 -732.95 1032.62 -756.57 977.61 -682.19 938.68 -531.62 918.17 -349.85 927.44 -185.72 973.8 -74.63 1058.87 -39.76 1180.53 -77.44 1322.25 -173.46 1471.58 -293.89 1605.06 -406.48 1696.24 -492.1 1730.22 -527.33 1696.25 -509.16 1605.29 -442.07 1474.79 -337.86 1339.01 -214.09 1243.29 -79.71 1215.39 45.61 1274.55 152.39 1411.6 240.68 1594.57 303.48 1772.13 343.98 1888.07 365.23 1906.32 372.16 1817.67 371.44 1656.8 361.46 1478.97 352.03 1353.97 347.37 1336.81 340.35 1437.46 341.64 1622.48 352.83 1819.12 363.79 1948.37 385.31 1953.21 417.92Q1953.21 417.92 1953.21 417.92" opacity="0.93"></path><path d="M1900.71 684.93C1788.06 715.74 1605.59 750.16 1422.56 787.05 1303.61 822.75 1288.66 858.54 1376.73 891.58 1536 919.86 1705.73 940.84 1828.1 950.73 1866.65 951.28 1807.16 936.62 1670.48 904.88 1494.1 864.46 1327.98 810.22 1212.65 747.05 1171.1 690.26 1206.75 640.63 1300.76 609.9 1429.36 611.15 1553.52 648.14 1644 726.05 1685.88 838.23 1667.41 977.73 1595.62 1127.48 1481.39 1260.42 1345.58 1358.42 1208.5 1400.05 1080.97 1377.18 980.28 1292.46 911.5 1163.65 870.82 975.01 937.62 971.93 1000.47 1204 1045.32 1382.48 1081.03 1516.94 1105.25 1563.4 1125.42 1507.36 1133.32 1365.19 1130.25 1185.2 1123.66 1036.87 1108.64 973.39 1087.1 1024.39 1064.46 1175.03 1037.35 1370.78 1006.54 1536 975.74 1604.31 941.96 1548.3 904.6 1393.4 866.13 1198.59 822.02 1036.68 770.51 963.11 715.49 1000.1 650.51 1127.96 574.45 1296.37 494.33 1450.27 403.91 1533.74 305.67 1522.28 210.48 1420.43 116.3 1258.45 31.11 1082.61 -55.15 892.36 -37.78 959.19 73.07 1137.29 166.08 1250.65 259.59 1322.87 333.43 1341.7 364.85 1306.4 344.87 1222.82 266.61 1107.53 139.75 972.39 -18.69 839.05 -179.38 721.37 -305.46 623.33 -370.97 554.54 -356.89 513.58 -269.05 498 -128.03 502.39 25.76 518.93 139.85 548.05 179.29 578.35 123.35 604.52 -16.39 632.68 -200.83 651.82 -371.99 660.62 -471.95 668.18 -466.07 665.36 -353.21 652.62 -176.28 639.23 3.06 617.03 115.71 586.22 114.69 555.42 3.85 516.74 -171.39 470.12 -348.63 422.86 -459.88 366.56 -467.84 300.9 -371.89 234.01 -204.56 157.8 -21.37 73.75 123.81 -8.31 188.99 -93.33 162.82 -175.84 57.28 -245.77 -88.33 -302.23 -228.47 -337.24 -328.3 -346.88 -356.92 -327.2 -310.05 -276.65 -198.5 -206.45 -48.26 -118.97 108.85 -27.91 248.76 43.3 346.07 84.59 391.9 79.53 385.5 20.33 336.78 -90.32 262.31 -240.05 171.63 -399.86 87.21 -543.51 21.41 -638.51 -24.15 -661.97 -39.41 -607.61 -26.42 -486.97 10.93 -338.6 68.53 -201.72 138.66 -122.43 220.68 -133.54 304.8 -237.04 385.85 -408.32 468.78 -594.12 544.02 -736.7 610.18 -785.61 675.17 -723.95 731.04 -571.13 778.05 -382.42 824.46 -233.59 863.04 -180.67 893.85 -248.94 924.66 -414.14 946.96 -606.77 960.56 -751.34 973.55 -796.28 976.81 -723.76 969.92 -563.56 961.86 -371.68 943.69 -214.78 916.66 -141.34 891.5 -170.39 862.09 -284.78 833.46 -440.67 816.72 -591.04 811.18 -684.2 824.41 -694.77 862 -621.25 926.37 -483.06 1019.41 -316.52 1132.7 -155.62 1262.98 -36.58 1397.73 22.66 1516.28 17.42 1607.31 -42.1 1654.08 -134.66 1648.63 -244.03 1589.77 -341.23 1486.24 -409.34 1365.5 -443.18 1249.56 -434.33 1170.09 -388.11 1155.29 -309.9 1213.76 -211.17 1341.08 -103.8 1508.69 9.94 1679.42 116.25 1807.55 210.06 1856.29 295.19 1811.17 364.57 1683.36 419.92 1517.57 465.93 1364.95 502.02 1280.88 531.85 1300.73 556.9 1421.04 580.25 1604.38 604.55 1785.73 627.67 1899.69 654.12 1900.71 684.93Q1900.71 684.93 1900.71 684.93" opacity="0.92"></path><path d="M1848.21 643.72C1744.74 672.71 1576.09 695.29 1399.54 711.03 1270.5 725.97 1228.17 732.63 1280.43 729.96 1409.59 725.11 1570.4 709.77 1712.9 683.96 1799.24 657.17 1802.23 622.43 1723.88 583.24 1584.09 551.06 1418.82 523.48 1266.7 507.85 1156.91 513.33 1110.66 541.95 1129.23 599.1 1204.68 682.78 1312.67 792.46 1426.64 921.22 1528.71 1051.62 1594.22 1173.96 1614.1 1270.23 1588.08 1323.77 1519.69 1326.48 1421.43 1274.43 1301.89 1180.77 1178.37 1059.48 1062.88 937.21 958.47 848.84 875.76 814.88 815.73 852.21 776.16 958.55 756.12 1114.73 750.2 1285.91 757.76 1427.12 771.13 1502.81 785.25 1489.11 804.25 1391.4 818.62 1235.83 825.93 1070.54 833.94 953.37 833.27 922.01 823.26 992.46 813.17 1144.68 793.75 1329.62 764.76 1483.5 735.76 1551.19 697.87 1508.4 651.5 1373.28 605.03 1191.89 550.05 1024.88 487.35 923.95 425.36 917.43 357.28 1001.93 285.67 1145.21 218.95 1305.18 154.08 1429.12 96.27 1482.62 51.94 1453.48 22.99 1348.62 14.94 1196.85 27.37 1031.05 63.86 890.09 123.58 799.95 194.39 772.92 274.75 807.66 352.8 887.94 409.57 997.67 438.15 1107.4 426.17 1195.76 368.28 1252.9 266.58 1265.65 130.28 1235.65 -17.92 1167.73 -158.2 1072.2 -263.84 962.23 -312.6 843.18 -294.44 730.24 -210.51 630.64 -84.26 543.28 57.37 475.33 175.91 425.33 233.01 390.04 211.13 368.03 108.43 354.6 -50.42 349.71 -225.08 347.21 -365.43 343.36 -428.87 342.58 -395.07 336.85 -271.78 324.26 -100.96 312.25 64.74 292.12 168.21 263.13 170.62 234.13 74.28 196.97 -85.08 152.51 -257.24 108.62 -382.88 58.7 -423.93 4.8 -370.34 -46.02 -238.11 -97.23 -67.5 -144.96 153.04 -198.88 154.63 -219.37 -30.11 -170.16 -162.57 -118.17 -257.19 -51.44 -294.06 22.91 -267.89 88.19 -183.22 140.57 -58.81 167.02 87.06 155.54 227.84 102.99 344.49 7.86 427.35 -118.49 467.93 -264.41 469.48 -408.38 435.66 -522.9 379.26 -589.94 312.88 -593.12 239.77 -533.19 175.89 -420.33 127.46 -280.39 91.71 -154.48 76.41 -73.24 79.65 -65.33 97.15 -140.07 128.39 -282.88 168.64 -459.2 217.03 -618.85 268.48 -717.21 319.31 -721.91 373.03 -632.2 422.7 -473.73 466.38 -298.07 510.6 -168.67 547.64 -128.78 576.63 -196.44 605.62 -350.3 625.9 -532.31 638.15 -678.81 650.95 -743.56 656.92 -703.69 657.88 -575.35 661.74 -398.87 664 -229.45 668.22 -115.36 680.57 -85.27 700.83 -142.07 733.58 -262.02 780.59 -411.95 844.89 -544.51 928.24 -624.99 1024.28 -636.47 1134.39 -574.42 1252.18 -455.86 1363.24 -303.4 1462.81 -149.83 1538.12 -21.93 1578.05 64.36 1577.28 97.84 1532.42 82.3 1453.78 24.04 1349.19 -58.48 1237.55 -147.39 1147.38 -234.66 1094.99 -301.19 1099.01 -340.19 1166.07 -352.65 1288.79 -335.05 1447.11 -292.92 1606 -229.68 1733.08 -153.1 1795.98 -70.67 1778.89 18.76 1684.53 104.99 1536.96 184.39 1382.72 262.8 1264.33 331.85 1221.93 391.39 1274.17 448.74 1408.34 497.73 1586.23 539.27 1751.35 580 1850.62 614.72 1848.21 643.72Q1848.21 643.72 1848.21 643.72" opacity="0.27"></path><path d="M1795.69 338.87C1701.1 366.06 1546.39 384.16 1378.21 393.72 1243.14 403.56 1177.86 405.5 1195.94 400.84 1290.66 398.07 1431.17 391.2 1577.66 383.18 1695.74 381.55 1752.42 384.17 1736.3 395.63 1652.26 420.44 1519.5 460.39 1367.38 519.02 1222.62 593.91 1113.37 687.21 1054.63 795.99 1051.57 908.6 1098.21 1022.12 1179.2 1125.17 1281.87 1203.38 1382.12 1250 1463.51 1255.8 1519.32 1220.9 1538.14 1146.85 1520.67 1043.66 1470.37 934.64 1393.88 835.25 1301.21 768.55 1196.12 755.18 1091.1 801.36 993.03 905.75 900.65 1049.77 822.27 1208.42 758.31 1347.82 705.03 1434.77 664.45 1449.21 633.56 1384.76 610.29 1260.24 592.22 1105.29 576.22 963.28 563.58 879.25 549.57 877.48 532.22 963.57 515.65 1114.86 494.16 1288.35 466.98 1431.01 439.79 1497.64 407.56 1466.98 371.18 1351.44 335.58 1186.09 297.42 1020.01 258.8 899.27 223.54 854.34 191.25 893.46 165.2 1000.06 146.77 1145.9 139.08 1287.24 145.25 1387.87 162.1 1426.6 194.54 1392.33 242.29 1295.61 295.73 1155.76 357.42 1002.98 420.61 865.79 489.4 738.07 469.34 801.43 349.82 935.02 232.81 1031.56 98.63 1110.3 -36.13 1161.56 -149.22 1183.96 -226.13 1172.53 -251.37 1132.02 -220.93 1066.33 -138.03 983.78 -17.51 892.98 110.35 794.72 220.97 699.93 285.08 613.04 281.27 530.16 206.9 458.74 73.48 398.55 -88.34 344.35 -241.84 299.43 -347.05 261.63 -375.62 227.37 -318.33 197.15 -188.63 169.11 -25.84 142.04 126.11 115.26 220.7 88.08 226.15 60.89 143.67 33.96 0.79 8.08 -162.94 -16.82 -297.17 -38.77 -365.5 -55.78 -352.26 -69.24 -260.46 -74.67 -116.02 -69.8 46.99 -58.92 188.85 -35.78 279.86 -0.01 304.13 39.77 261.69 88.62 168.88 142.25 45.43 188.41 -76.16 227.64 -170.61 251.42 -223.91 250.04 -223.4 221.01 -172.14 159.72 -78.06 69.57 42.85 -46.49 172.62 -178.66 299.97 -307.85 407.59 -421.83 487.63 -502.24 538.16 -534.96 557.66 -514.01 551.52 -440.21 522.11 -331.32 479.66 -204.88 432.27 -89.28 378.99 -16.8 331.66 -4.68 294.02 -63.34 260.93 -183.89 240.46 -342.93 231.98 -504.11 229.49 -626.05 236.86 -678.15 251.8 -643.71 270.18 -533.47 293.1 -375.39 318.61 -215.4 345.05 -105.25 372.27 -77.34 399.45 -143.97 426.63 -286.63 453.14 -457.37 479.64 -603.28 507.08 -683.99 536.33 -674.22 569.22 -579.7 605.54 -427.2 648.53 -259.27 700.34 -119.41 758.14 -39.62 826.89 -36.36 907.08 -103.39 991.83 -222.86 1085.1 -359.37 1183 -479.14 1275.03 -559.28 1360.81 -579.12 1432.11 -537.44 1480.15 -442.45 1501.11 -312.78 1489.47 -171.67 1448.33 -36.38 1378.03 71.59 1286.31 142.12 1192.17 171.94 1105.18 162.65 1043.19 123.33 1024.03 59.17 1053.78 -13.88 1135.39 -84.59 1258.14 -151.47 1406.08 -201.45 1553.78 -231.71 1670.83 -245.7 1735.42 -239.71 1731.08 -217.41 1659.99 -181.77 1535.83 -136.11 1388.15 -85.16 1259.05 -27.82 1180.23 29.39 1177.48 83.43 1256.3 139.35 1398.53 189.58 1567.65 232.69 1715.91 276.08 1801.14 311.69 1795.69 338.87Q1795.69 338.87 1795.69 338.87" opacity="0.45"></path><path d="M1743.21 100.12C1657.28 125.5 1516.54 148.37 1358.39 169.4 1221.11 191.28 1137.68 212.97 1124.71 236.27 1183.32 262.8 1295.04 293.98 1430.8 332.23 1562.69 376.84 1657.81 431.56 1697.38 497.93 1675.76 571.35 1596.73 655.88 1477.34 749.55 1336.59 843.27 1200.01 938.03 1087.77 1026.89 1012.1 1099.5 981.61 1152.65 994 1178.63 1044.93 1174.56 1120.35 1138.23 1205.82 1071.27 1294.12 986.31 1368.32 889.57 1420.62 796.12 1450.47 726.85 1452.26 691.71 1428.84 702.97 1383.26 764.37 1320.52 870.81 1247.29 1008.89 1164.18 1153.9 1080.02 1282.97 999.23 1370.05 918.36 1396.79 845.16 1356.61 780.65 1255.98 719.31 1120.6 666.46 978.69 621.22 866.07 578.35 815.24 541.27 839.63 508.87 937.41 477.21 1085.42 448.86 1246.91 423.49 1378.5 398.12 1443.63 376.32 1423.96 358.58 1327.5 341.55 1180.16 329.94 1020.47 324.97 887.75 322.36 811.55 328.21 807.35 343.52 870.81 362 986.4 390.14 1122.2 427.04 1246.27 463.87 1335.49 505.16 1368.22 546.6 1340.38 578.18 1258.03 600.47 1137.03 606.96 999.48 591.28 863.55 551.72 751.33 485.57 675.15 396.97 640.22 287.94 646.71 166.38 686.67 47.66 754.31 -59.42 833.75 -140.31 912.56 -182.65 987.02 -180.42 1043.43 -131.16 1077.82 -45.34 1092.14 66.64 1083.13 184.77 1054.63 281.53 1009.3 339.88 951.91 342.9 887.89 284.74 816.33 173.1 744.92 26.89 677.01 -123.17 607.81 -247.01 544.97 -315.41 489.54 -312.23 434.72 -236.27 387.42 -104 347.65 49.11 308.24 187.28 275.78 273.21 250.4 281.23 225.03 211.79 207.35 85.68 197.35 -66.77 187.7 -203.97 186.3 -292.95 193.27 -315.6 200.86 -265.71 216.69 -156.97 239.87 -12.27 261.74 136.81 288.09 261.23 315.69 340.64 335.74 362.66 350.27 329.48 353.95 249.17 340.8 142.84 309.37 32.42 255.96 -67.14 182.47 -134.96 88.3 -162.38 -22.44 -148.27 -137.56 -94.04 -251.83 -9.31 -352.73 98.28 -425.96 214.13 -464.12 326.63 -459.17 431.43 -412.95 517.71 -328.99 582.67 -219.48 627.21 -108.34 650.74 -11.92 657.4 47.8 648.31 53.03 629.96 -0.35 607.51 -108.16 578.5 -250.82 551.7 -403.14 530.03 -533.05 507.56 -610.85 492.66 -618.78 486.03 -552.39 480.18 -429.48 482.52 -277.26 492.84 -134.93 503.54 -43.47 521.59 -26.34 546.96 -91.44 572.33 -223.01 604.42 -381.93 643.14 -524.93 682.23 -617.72 728.59 -634.67 782.29 -574.07 836.76 -451.67 898.66 -297.65 967.16 -147.95 1034.86 -32.98 1106.72 23.72 1179.7 15.59 1246.12 -52.88 1307.33 -161.26 1358.09 -283.65 1393.09 -399.11 1410 -480.96 1404.55 -515.96 1378.7 -500.8 1330.18 -437.42 1261.69 -338.19 1185.48 -214.79 1104.47 -86.37 1030.12 31.83 978.65 132.04 956.09 203.21 971.93 243.59 1029.31 253.91 1125.38 238.52 1251.36 205.02 1388.2 155.26 1519.12 100.94 1622.06 48.88 1677.87 -3.13 1676.52 -44.79 1615.71 -74.24 1509.88 -96.65 1377.31 -106.3 1246.93 -104.88 1152.51 -97.11 1114.74 -81.29 1147.18 -59.97 1245.95 -35.42 1390.61 -8.42 1548.09 19.11 1679.22 47.49 1751.23 74.76 1743.21 100.12Q1743.21 100.12 1743.21 100.12" opacity="0.27"></path><path d="M1690.7 185.79C1613.11 209.35 1486.23 238.33 1339.51 272.78 1203.65 307.7 1107.24 348.92 1067.72 396.84 1091.21 446.01 1169.05 502.58 1282.19 566.37 1410.42 630.87 1525.11 701.33 1605.44 775.75 1640.34 846.61 1622.28 916.46 1556.61 980.79 1453.18 1032.92 1328.94 1071.7 1201.93 1092 1085.1 1092.14 994 1069.45 935.79 1023.3 912.94 961.38 923.92 884.43 961.79 800.5 1022.47 725 1093.17 663.59 1164.3 628.1 1233.89 629.04 1290.24 668.97 1329.7 748.5 1354.38 858.76 1359.84 989.09 1348.29 1121.99 1322.46 1235.35 1284.37 1313.1 1238.18 1340.01 1183.9 1311.48 1126.94 1230.54 1070.51 1111.03 1011.2 979.98 955.55 860.97 905.16 781.14 854.27 761.8 809.63 808.17 771.85 913.73 734.1 1056.32 703.25 1205.38 679.69 1326.04 656.13 1389.2 640.42 1379.3 632.29 1301.06 624.18 1173.05 623.61 1024.44 630.06 887.43 636.02 788.55 648.04 746.63 664.6 765.84 678.29 840.81 693.4 951.79 706.86 1074.56 712.22 1189.19 710.5 1270.95 697.65 1307.02 670.52 1293.94 627.51 1233.34 566.52 1136.73 490.75 1015.98 399.33 889.55 296.03 772.88 191.2 674.98 88.15 606.85 -3.4 570.91 -72.15 566.95 -112.53 590.37 -117.5 633.4 -87.11 693.16 -22.24 757.48 70.05 818.83 172.53 877.76 273.94 924.15 356.35 955.94 401.02 976.73 399.88 982.22 347.71 974.59 250.11 956.99 120.08 930.12 -21.43 897.29 -147.86 858.82 -236.95 818.36 -269.54 778.49 -239.11 736.45 -149.63 697.38 -18.43 662.77 123.62 627.7 248.11 598.05 325.7 574.49 335.9 550.93 278.66 534.03 169.34 523.21 30.45 511.93 -104.55 505.78 -207.22 503.39 -259.46 498.84 -249.37 495.65 -181.21 491.38 -68.04 481.47 68.34 466.5 203.64 443.27 318.16 410.08 393.66 364.77 422.52 305.3 403.44 234.83 344.55 150.89 259.49 55.65 158.89 -42 62.64 -141.38 -15.86 -234.85 -70.91 -311.59 -92.82 -367.36 -81.54 -394.27 -39.75 -389.22 27.53 -350.49 111.96 -280.4 209.59 -191.55 309.58 -91.36 405.06 4.86 495.83 76.93 573.97 114.71 638.11 106.78 690.68 49.69 729.54 -51.26 757.06 -183.15 774.92 -323.19 785.54 -449.5 792.05 -537.77 793.35 -570.28 794.38 -539.61 797.44 -449.82 798.57 -321.9 803.92 -180.23 814.73 -56.87 825.16 16.69 841.88 24.21 865.44 -38.94 889 -159.6 918.83 -306.28 954.3 -444.21 989.37 -545.1 1029.24 -584.54 1072.53 -556.1 1113.9 -467.18 1156.52 -336.93 1197.96 -192.58 1234.19 -59.78 1265.41 36.49 1288.38 82.29 1301.69 72.65 1302.64 14.1 1288.75 -78.25 1263.3 -190.13 1222.71 -297.63 1168.25 -383.36 1109.07 -438.36 1044.15 -452.06 980.23 -425.18 929.5 -361.88 894.56 -271.07 883.65 -164.68 903.25 -49.88 954.56 59.41 1037.43 155.04 1143.76 234.9 1266.24 292.65 1391.37 328.81 1500.96 344.83 1582.68 343.6 1622.77 330.15 1614.93 304.5 1558.63 274.47 1461.38 244.43 1343.34 210.84 1222.29 182.22 1122.41 160.47 1067.54 139.42 1068.7 126.49 1130.04 121.74 1241.8 118.25 1383.75 122.25 1527.29 133.22 1641.27 144.66 1700.9 162.23 1690.7 185.79Q1690.7 185.79 1690.7 185.79" opacity="0.48"></path><path d="M1638.21 503.1C1568.67 524.85 1455.44 553.07 1321.26 587.22 1190.11 621.12 1085.88 660.41 1025.24 704.02 1016.88 746.28 1059.24 791.22 1141.69 836.86 1251.48 878.43 1366.55 917.42 1467.98 950.83 1543.64 975.85 1579.8 991.01 1573.25 993.34 1526.21 983.75 1445.32 959.07 1342.24 918.79 1226.55 869.28 1113.03 808.57 1012.45 741.06 930.34 677.8 874.09 620.23 844.56 576.47 841.23 556.24 860.24 562.2 895.59 598.85 945.7 665.41 1000.93 759.11 1055.38 872.81 1110.26 992.5 1156.63 1107.5 1192.28 1202.66 1220.87 1263.81 1237.2 1282.74 1242.29 1254.42 1239.84 1184.42 1228.39 1080.8 1210.26 959.93 1187.24 846.02 1160.53 756.55 1132.24 710.16 1101.79 718.96 1071.94 782.59 1044.05 892.02 1015.65 1027.25 990.27 1163.56 968.53 1273.5 946.78 1334.31 929.19 1332.99 915.23 1271.94 900.75 1163.92 888.87 1030.17 878.31 895.97 865.59 783.55 852.01 712.12 835.58 690.82 814.26 721.28 787.08 794.35 751.85 894.59 709.06 1007.9 655.99 1112.27 591.69 1192.1 520.33 1239.37 439.3 1245.57 350.91 1212.16 262.94 1143.79 175.34 1049.83 94.12 942.16 27.65 828.66 -21.21 722.72 -46.38 632.46 -45.36 560.83 -16.25 513.2 40.18 488.84 115.07 486.67 204.39 502.59 297.43 531.16 377.87 571.97 437.69 616.42 465.32 659.83 452.48 704.88 398.6 743.24 307 773.19 189.62 799.62 60.4 816.55 -61.65 824.59 -156.37 828.76 -209.12 825.52 -209.15 816.31 -156.9 804.88 -59.07 789.41 67.77 771.11 197.64 752.18 308.67 731.61 378.21 709.86 390.17 688.12 344.22 665.71 251.39 642.28 127.81 618.23 -0.43 591.97 -109.86 562.38 -184.14 530.59 -208.67 493.54 -181.27 449.93 -107.41 402.44 0.59 346.88 125.19 282.77 250.58 215.14 358.29 140.03 436.05 59.27 477.18 -19.83 479.24 -98.95 446.77 -173.28 384.39 -235.38 304.92 -283.67 220.14 -312.61 135.82 -319.38 65.61 -301.62 15.75 -258.5 -13.11 -196.75 -16.42 -117.95 3.7 -30.13 44.76 51.85 102.61 121.61 171.55 167.34 250.44 178.12 331.64 150.86 410.85 84.21 490.05 -15.01 562.43 -137.09 626.69 -266.34 686.69 -382.53 738.12 -469.77 781.76 -512.51 821.36 -503.49 854.92 -442.47 883.89 -338.45 910.67 -212.65 934.81 -85.3 957.45 18.42 979.49 75.19 1001.19 74.33 1022.93 13.55 1044.68 -96.36 1065.96 -230.47 1086.28 -361.41 1105.99 -466.55 1123.59 -523.81 1137.83 -524.23 1149.87 -469.46 1156.58 -369.62 1156.44 -243.44 1152.26 -110.3 1139.45 7.49 1117.13 93.43 1090.57 137.7 1054.94 136.51 1011.44 94.76 967.94 18.99 921.4 -74.92 876.03 -171.96 840.6 -263.03 815.12 -332.51 805.18 -373.4 816.16 -384.38 849.33 -363.2 906.71 -314.48 985.07 -242.21 1082.42 -154.78 1192.41 -60.41 1302.88 38.21 1406.56 131.29 1491.58 214.32 1546.7 288.11 1565.71 347.46 1543.98 392.76 1485.61 426.13 1395.62 447.72 1286.18 460.39 1177.51 464.66 1083.67 464.29 1022.07 462.18 1006.95 455.99 1041.86 451.34 1124.53 450.09 1242.35 447.49 1377.01 449.94 1504.88 458.39 1602.02 466.6 1650.17 481.36 1638.21 503.1Q1638.21 503.1 1638.21 503.1" opacity="0.80"></path><path d="M1585.71 708.92C1523.9 728.86 1424 749.4 1303.19 770.08 1179.63 790.23 1072.56 809.49 996.81 826.68 961.76 841.88 970.39 853.18 1018.41 859 1099.31 860.89 1198.17 855.3 1300.28 840.97 1395.35 821.63 1468.26 792.94 1511.2 755.13 1521.83 714.59 1498.13 667.82 1444.62 617.72 1366.27 572.51 1272.17 531.18 1171.61 498.84 1069.78 482.55 976.76 483.42 897.96 505.44 834.8 549.76 791.2 616.34 766.41 703.12 759.52 802.38 767.68 909.5 786.87 1015.1 817.1 1106.86 851.77 1177.37 887.16 1217.28 925.81 1221.56 960.53 1188.32 989.51 1119.93 1017.29 1027.48 1037.8 920.15 1050.92 813.19 1063.86 697.23 1055.95 724.39 1038.85 872.03 1025.59 998.24 1008.87 1121.61 988.94 1221 969.01 1279 946.33 1284.96 920.76 1239.7 894.76 1151.66 865.04 1035.55 831.01 910.32 795.52 793.48 754.53 702.47 707.46 648.4 658.17 636.85 602.26 666.56 539.93 730.02 476.41 819.36 407.99 918.61 336.62 1013.93 268.5 1097.03 202.05 1154.94 141.1 1182.52 91.19 1179.26 53.36 1145.07 31.72 1085.34 27.99 1004.61 44.22 911.83 81.25 815.17 133.93 718.01 202.07 629.44 280.35 553.61 357.38 490.56 429.29 444.07 486.87 413.25 519.63 396.85 524.01 393 495.6 398.38 434.88 413.23 345.73 432.29 236.04 452.46 119.33 476.61 7.49 498.28 -84.65 515.69 -143.93 533.88 -162.07 546.33 -134.71 552.46 -66.66 558.35 34.54 557.8 154.15 550.71 271.02 543.46 368.9 529.93 430.71 509.99 444.01 490.06 408.35 464.2 331.41 432.62 224.27 400.89 106.6 363.19 -3.06 319.7 -91.18 275.99 -142.8 226.6 -152.08 172.26 -119.41 118.68 -49.28 61.61 47.67 2.91 160.78 -51.8 275.18 -104.55 378.38 -152.14 490.24 -204.22 524.14 -224.01 458.22 -181.09 391.51 -133.79 319.49 -72.59 249.68 -1.55 183.61 68.97 130.53 136.87 93.31 194.07 70.46 230.27 65.39 242.28 76.34 224.79 101.21 176.47 138.11 99.25 183.47 -1.62 237.1 -114.72 294.2 -230.21 351.81 -334.17 412.4 -412.25 470.3 -454.95 523.98 -454.66 577.85 -411.85 626.41 -330.38 669.19 -221.24 711.52 -103.71 748.19 6.53 779.16 90.65 809.93 131.98 835.36 124.02 855.3 66.05 875.23 -33.32 889.2 -154.67 897.26 -276.93 905.9 -417.72 890.96 -421.85 867.44 -289.9 849.93 -171.69 827.43 -51.38 801.39 55.68 766.62 163.44 718.83 153.97 722.11 57.38 741.89 -27.45 776.63 -112.38 828 -188.11 893.75 -251.36 974.19 -293.06 1066.39 -311.25 1162.33 -307.15 1259.23 -280.65 1349.48 -235.84 1423.51 -174.98 1476.55 -103.97 1501.86 -28.04 1496.76 52.77 1460.05 131.31 1393.99 204.59 1308.56 275.13 1210.4 337.51 1111.91 391.39 1029.56 440.27 972.41 481.26 950.99 515.54 971.51 545.88 1032.66 571.52 1128.46 593.91 1245.83 614.31 1369.37 633.31 1480.45 651.99 1561.33 670.14 1599.01 688.99 1585.71 708.92Q1585.71 708.92 1585.71 708.92" opacity="0.42"></path><path d="M1533.19 580.58C1478.77 598.7 1391.79 611.71 1284.86 619.61 1171.31 627.28 1066.01 629.42 981.37 625.87 926.1 621.68 905.56 611.42 919.71 595.17 966.49 578.47 1037.46 556.28 1122.79 529.49 1215.44 504.13 1302.28 476.42 1374.55 448.56 1442.46 417.33 1411.58 404.01 1324.05 436.77 1245.29 478.1 1159.44 534.95 1072.44 606.75 986 688.56 907.08 779.24 838.53 873.64 779.79 963.07 734.07 1043.66 700.82 1108.03 678.79 1149.49 667.2 1164.43 663.69 1149.67 668.27 1107.45 677.34 1039.47 688.51 951.89 703.83 857.09 718.33 762.77 730.36 680.94 743.87 624.71 753.36 600.21 757.97 612.98 762.88 663.54 762.4 746.78 756.15 853.34 749.91 969.12 737.85 1079.46 719.73 1168.51 701.61 1223.26 677.85 1235.19 648.79 1204.17 619.74 1135.47 585.45 1038.7 546.36 927.38 507.57 814.42 464.52 714.26 418.12 637.79 373.22 591.93 326.53 580.38 279.8 601.51 237.23 652.58 197.53 724.47 163.2 807.54 136.95 895.75 119.66 976.7 113.76 1042.82 119.08 1091.51 137.82 1116.39 170.64 1117.11 213.26 1095.2 267.3 1052.6 329.98 994.02 393.23 921.87 456.46 842.77 513.83 761.8 556.72 679.45 583.02 602.36 587.61 533.05 567.04 469.92 521.24 416.94 451.28 373.89 362.85 338.65 261.24 312.06 155.3 292.42 56.69 278.75 -26.06 269.43 -83.08 262.56 -107.45 259.03 -95.57 255.66 -47.29 251 30.35 247.69 130.32 241.67 240.28 232.07 343.63 222.77 428.77 209.26 483.19 191.14 497.42 173.02 471.03 150.72 409.15 124.72 318.98 99.03 214.83 70.27 110.67 39.4 16.86 9.88 -52.96 -20.31 -91.52 -49.65 -96.5 -75.67 -66.86 -98.54 -7.39 -116.27 75.96 -128.04 173.71 -132.08 275.95 -126.6 375.76 -113.31 463.3 -89.22 532.79 -54.03 581.53 -12.65 606.9 37.46 610.17 93.87 592.26 148.92 558.03 203.14 512.62 251.54 457.11 286.38 399.59 306.37 344.56 306.89 291.08 284.78 246.17 239.72 211.48 172.18 184.41 87.19 168.84 -11.3 163.91 -115.68 167.04 -214.91 178.93 -301.58 197.6 -365.94 221.94 -400.37 250.34 -400.62 280.82 -365.01 314.28 -298.77 347.66 -207.28 379.54 -101.32 412.56 3.01 442.83 94.45 469.46 159.58 496.35 187.04 519.08 173.29 537.2 118.56 555.32 29.53 568.4 -78.97 576.82 -191.16 585.48 -294.15 590 -372.08 591.15 -415.66 593.45 -421.45 593.64 -388.31 593.05 -321.86 595.45 -229.8 599.24 -123.69 606.31 -15.6 619.04 85.26 637.77 168.01 664.4 226.4 699.08 257.33 743.54 259.96 798.55 237.37 861.16 191.87 933.05 131.46 1012.46 63.43 1093.41 -9.56 1175.82 -77.62 1255.08 -135.69 1324.24 -183.74 1381.09 -215.7 1420.4 -231.1 1438.53 -231.8 1433.34 -217.11 1403.47 -189.68 1352.85 -150.84 1282.87 -103.84 1199.22 -51.92 1113.15 5.69 1030.16 64.02 960.09 120.78 913.9 178.98 896.06 233.36 911.27 282.93 960.05 332.06 1038.54 375.89 1139.34 414.26 1250.5 451.99 1359.97 484.63 1453.73 512.26 1519.19 539.65 1547.42 562.46 1533.19 580.58Q1533.19 580.58 1533.19 580.58" opacity="0.59"></path><path d="M1480.69 256.89C1358.59 289.51 1163.31 302.62 977.27 299.89 866.19 300.51 864.62 292.94 957.62 287.82 1111.69 300.98 1262.54 335.47 1363.34 404.38 1397.06 505.47 1352.83 642.43 1252.28 801.61 1112.93 947.62 967.7 1059.76 839.1 1102.11 726.68 1061.28 645.63 940.11 591.16 771.71 554.68 624.74 531.38 548.51 511.2 586.5 495.88 734.16 474 939.34 441.38 1116.01 408.76 1184.49 366.95 1114.18 320.75 943.78 279.42 741.29 243.37 585.34 223.32 523.4 221.27 566.54 248.6 685.09 310.74 827.93 389.07 961.08 487.46 1037.33 584.06 1046.1 641.86 994.01 647.42 895.15 579.73 776.03 444.97 643.06 264.86 522.41 86.88 423.27 -30.01 334.03 -47.02 266.29 51.47 215.15 224.93 168.82 413.59 130.81 535.69 98.19 530.88 65.57 408.69 39.88 228.35 24.69 55.53 14.31 -36.66 22.71 -22.2 55.41 88.64 98.02 257.66 164.95 431.93 247.65 577.18 316.5 660.64 368.54 680.94 377.89 644.3 326.38 575.04 211.46 498.77 44.36 416.32 -132.43 355.35 -280.25 320.93 -347.33 298.73 -309.32 299.57 -171.95 316.54 17.94 338.44 175.76 367.66 239.49 400.28 171.05 432.9 -5.6 467.37 -204.17 506.98 -339.27 551.53 -364.7 610.02 -269.92 688.75 -99.05 779.69 93.26 894.37 243.69 1027.1 318.5 1153.65 310.12 1269.75 236.66 1349.16 133.4 1371.61 16.97 1326.85 -73.15 1215.57 -123.97 1075.27 -142.61 935.5 -123.38 848.55 -80.01 857.97 -18.37 968.72 48.54 1154.11 109.43 1347.04 173.68 1475.87 224.26 1480.71 256.88Q1480.69 256.89 1480.69 256.89" opacity="0.61"></path><path d="M1428.21 87.99C1324.74 116.98 1156.8 145.86 982.35 177.52 850.41 213.34 796.63 259.57 824.76 322.26 923.17 396.73 1053.49 493.44 1177.61 610.83 1277.55 730.58 1324.95 853.02 1318.8 958.07 1266.49 1022.74 1179.78 1035.44 1077.96 983.7 963.69 881.84 857.27 742.77 766.63 602.85 681.03 512.23 613.01 496.63 560.75 573.4 511.54 725.35 473.07 909.63 444.08 1063.5 415.08 1131.19 396.93 1088.04 391.46 956.27 389.04 778.78 404.32 612.2 439.67 500.97 480.06 466.32 538.73 507.58 608.31 599.91 665.44 723.8 710.53 838.51 724.84 920.67 692.98 968.23 611.2 969.11 481.07 933.14 326.76 867.91 170.44 786.79 50.78 703.91 1.39 614.19 38.66 534.93 159.42 471.24 322.68 407.74 484.74 360.68 588.21 331.69 590.62 302.69 497.41 293.14 346.92 301.96 182.06 310.96 60.74 337.47 14.04 376.95 47.05 409.58 150.18 442.95 291.82 463.49 447.96 454.78 584.2 412.28 682.96 326.71 741.79 206.55 759.16 57.47 747.68 -96.6 710.64 -219.12 667.09 -286.39 629.35 -273.01 587.77 -183.05 561.7 -32.99 553.99 133.31 547.23 253.9 558.15 291.21 587.14 223.55 616.14 69.69 661.83 -108.71 723.28 -249.48 785.67 -315.09 864.49 -283 956.31 -171.14 1044.3 -9.96 1135.6 155.1 1217.33 287.15 1273.5 369.1 1297.76 390.78 1276.93 364.12 1216.17 297.07 1114.31 216.25 988.36 141.19 876.91 68.48 799.79 19.52 788.03 -4.69 855.98 -17.13 993.8 -10.62 1169.86 8.23 1331.54 31.26 1430.62 58.99 1428.21 87.99Q1428.21 87.99 1428.21 87.99" opacity="0.97"></path><path d="M1375.69 256.58C1289.74 281.95 1149.56 321.76 993.85 375.31 856.17 429.88 767.09 499.35 738.79 581.65 772.01 662.52 850.5 750.27 950.74 835.7 1061.19 903.8 1153.44 951.62 1215.28 966 1249.26 944.01 1247.92 880.56 1219.13 779.98 1168.48 667.08 1104.96 553.42 1038.89 466.91 966.17 436.4 900.28 470.87 846.15 571.83 791.4 718.57 750.31 879.42 724.94 1011.01 699.56 1076.14 691.12 1055.89 698.02 961.76 704.31 818.55 724.04 662.87 752.79 529.61 774.9 439.43 796.64 406.44 808.19 425.69 797.88 490.6 762.79 578.26 695.56 668 600.46 756.77 478.14 822.61 341.27 861.23 214.61 880.61 113.37 875.54 61.55 853.6 71.26 820.05 145.89 780.24 273.78 741.31 419.7 699.61 554.74 664.45 640.69 639.08 648.74 613.71 581.86 599.33 463.36 593.18 318.6 584.26 189.32 577.92 103.41 567.51 70.74 545.48 99.27 508.77 176.38 450.29 289.6 372.56 416.53 270.31 537.85 148.28 649.29 25.29 735.68 -92.43 796.03 -183.77 835.39 -229.44 855.39 -219.22 864.28 -147.65 862.54 -32.99 860.38 108.24 864.11 241.66 865.57 326.01 877.71 341.15 903.08 276.05 928.45 144.47 965.84 -11.23 1012.22 -148.2 1056.34 -239.38 1104.65 -259.43 1150.37 -210.34 1185.45 -105.24 1207.24 31.17 1206.98 170.49 1185.75 297.49 1135.78 391.02 1057.61 446.27 969.54 465.14 872.68 453.75 785.87 424.75 735.18 378.42 729.38 332.45 780.64 295.55 885.13 257.21 1028.83 233.89 1183.38 227.17 1311.68 221.47 1383.73 231.2 1375.71 256.57Q1375.69 256.58 1375.69 256.58" opacity="0.10"></path><path d="M1323.21 580.29C1253.67 602.03 1140.86 634.76 1009.03 676.02 879.03 715.66 773.57 760.38 706.1 805.03 681.73 841.9 698.6 870.59 746.43 883.81 820.4 879.98 901.83 852.9 978 799.73 1050.45 731.07 1103.98 643.98 1136.72 548.95 1156.78 436.53 1111.49 434.84 1070.26 579.36 1040.18 712.82 1013.07 848.57 991.33 958.5 969.58 1019.31 954.22 1017.26 943.29 957.48 930.19 852.97 917.27 724.46 899.98 595.56 874.46 481.06 837.48 398.24 784.49 352.59 718.23 344.17 633.48 367.24 532.53 410.66 427.86 472.64 320.64 536.44 224.02 592.95 153.56 648.53 117.18 689.11 125.61 713.66 177.14 732.96 270.22 738.49 391.83 732.77 515.26 724.99 623.67 709.58 693.21 687.84 705.17 666.09 661.21 639.04 574.51 605.8 458.11 570.51 339.29 525.42 238.87 468.44 165.03 406.2 132.6 329.81 141 240.72 185.17 150.69 257.55 55.67 345.33 -34.8 445.11 -106.72 542.46 -155.58 629.8 -169.81 712.1 -146.81 779.74 -83.5 833.14 15.04 880.09 128 916.75 244.13 946.09 340.26 973.24 391.66 997.07 389.32 1018.81 328.54 1040.56 218.62 1059.19 87.28 1073.05 -37.79 1084.72 -139.65 1087.62 -195.86 1078.36 -201.04 1062.64 -158.94 1030.82 -77.59 982.03 26.53 928.21 144.21 862.08 257.08 790.8 354.25 731.53 435.93 684.93 494.23 663.4 531.57 677.64 551.87 729.58 558.99 819.36 559.81 935.72 552.85 1066.92 547.68 1191.71 549.06 1286.8 548.81 1335.17 558.54 1323.21 580.29Q1323.21 580.29 1323.21 580.29" opacity="0.39"></path><path d="M1270.69 708.98C1216.27 727.1 1129.55 742.91 1024.6 755.18 912.85 765.84 809.04 770 723.96 765.03 662.19 755.04 628.42 732.41 620.79 695.71 638 653.26 672.56 597.83 716.58 532.79 771.12 470.97 824.04 409.98 869.95 358.64 915.42 329.07 949.65 323.24 971.71 347.48 990.87 402.94 999.04 487.24 997.3 593.14 994.38 707.08 983.63 816.96 965.51 906.01 947.39 960.76 922.76 971.88 891.5 941.17 859.05 874.84 817.92 782.68 767.36 678.41 713.89 570.26 649.82 471.91 576.42 391.35 502.57 329.82 423.64 291.54 345.35 274 277.58 275.44 221.53 290.17 185.45 311.76 174.21 342.4 191.73 371.84 240.22 395.56 312.02 421.32 405.51 437.93 510.26 443.52 608.22 449.15 691.27 443.37 745.69 425.25 759.92 407.13 735 377.52 677.73 337.71 593.5 297.95 498.36 248.37 405.55 191.21 319.21 136.08 253.61 76.8 213.15 18.23 195.29 -31.28 202.91 -72.03 230.95 -97.22 276.21 -103.43 332.63 -86.64 393.4 -43.98 460.47 17.7 524.71 99.8 582.17 194.67 640.12 285.65 689.25 367.5 728.2 426.83 766.78 450.55 795.59 435.76 813.71 381.01 831.83 291.96 838.41 185.75 834 78.81 829.24 -20.1 813.07 -94.07 786.52 -136.25 760.47 -147.21 726.08 -125.13 686.93 -76.69 654.09 -6.48 623.69 75.99 602.18 161.56 597.89 250.35 611.76 331.8 648.49 402.17 707.82 466.81 789.66 519.28 889.29 560.68 995.39 597.05 1100.84 625.86 1192.06 649.37 1256.33 671.28 1284.92 690.86 1270.69 708.98Q1270.69 708.98 1270.69 708.98" opacity="0.29"></path><path d="M1218.21 503.43C1114.74 532.42 948.21 523.32 781.13 479.89 645.78 436.54 572.09 367.02 553.58 295.87 580.49 263.79 623.8 279.8 655.79 368.07 694.2 516.69 703.38 699.64 674.39 853.5 645.39 921.19 580.97 877.28 492.31 754.74 410.07 589.02 321.51 431.32 256.6 314.6 237.11 234.06 280.05 194.86 394.14 176.86 539.96 173.74 694.74 164.32 798.21 135.32 800.62 106.33 713.65 60.51 583.08 13.38 435.64 -18.86 327.94 -24.91 277.66 17.62 269.67 96.33 304.4 223.28 355.18 367.75 418.81 469.04 472.6 501.19 501.6 433.5 530.59 279.64 532.04 108.44 518.66 -18.92 518.12 -85.93 528.65 -71.18 574.64 -1.1 662.93 108.04 801.38 222.82 970.07 316.41 1121.9 410.09 1220.62 474.44 1218.21 503.43Q1218.21 503.43 1218.21 503.43" opacity="0.68"></path><path d="M1165.85 185.92C1096.48 207.67 984.61 208.47 859.87 196.4 734.59 191.62 631.16 188.57 558.21 202.61 507.44 243.65 479.33 318.92 462.84 428.82 454.52 556.39 443.04 691 421.29 800.93 399.54 861.74 369.59 858.2 340.23 802.2 319.03 707.08 313.2 594.47 335.47 488.18 379.92 383.92 460.29 301.01 569.63 242.4 678.42 189.81 781.48 153.36 850.85 131.62 862.61 109.87 822.41 104.88 748.99 119.79 648.82 140.71 553.11 189.68 479.73 265.44 416.42 343.23 382.5 432.78 374.04 511.96 372.85 552.01 385.82 546.74 407.57 485.93 429.31 376 457.78 250.21 496.65 138.57 542.8 44.61 610.65 -7.58 702.46 -20.12 804.35 -5.65 923.13 31.32 1039.24 73.79 1128.6 123.54 1177.61 164.17 1165.85 185.92Q1165.85 185.92 1165.85 185.92" opacity="0.24"></path><path d="M1113.19 100.04C1009.71 129.03 845.97 185.04 706.95 285.11 579.55 414.43 499.25 594.66 470.26 748.51 441.26 816.2 469.06 770.61 558.46 675.07 659.48 548.47 799.71 447.27 903.19 418.28 905.63 389.28 831.02 437.99 748.07 526.59 648.6 584.12 600.95 606.2 629.95 538.51 658.94 384.66 759.08 227.94 896.56 136.62 1017.51 74.56 1115.63 71.04 1113.19 100.04Q1113.19 100.04 1113.19 100.04" opacity="0.08"></path></g></svg>