<svg width="100%" height="100%" viewBox="0 0 516 270" version="1.1" xmlns="http://www.w3.org/2000/svg" xmlns:xlink="http://www.w3.org/1999/xlink" xml:space="preserve" xmlns:serif="http://www.serif.com/" id="superAvionEnPapier" style="fill-rule:evenodd;clip-rule:evenodd;stroke-linejoin:round;stroke-miterlimit:2;"><path d="M166.779,179.525l-27.722,90.098c27.976,-21.271 60.256,-47.026 86.605,-60.161c-15.162,-13.169 -34.429,-23.405 -58.883,-29.937Z" style="fill:#8f8f8f;fill-rule:nonzero;"/><path d="M118.265,151.802l397.585,-151.802l-349.071,179.525c51.485,22.489 98.471,51.405 138.613,90.098c45.55,-82.732 114.68,-172.309 210.458,-269.623c-165.386,33.747 -334.239,65.414 -515.85,89.426c42.799,17.415 83.574,36.854 118.265,62.376Z" style="fill:#d8d8d8;fill-rule:nonzero;"/><path d="M166.779,179.525l-27.286,90.098c-3.516,-40.697 -9.608,-80.365 -21.228,-117.821l397.585,-151.802l-349.071,179.525Z" style="fill:#c6c6c6;fill-rule:nonzero;"/></svg>